<?xml version="1.0" encoding="UTF-8"?>
<svg version="1.1" xmlns="http://www.w3.org/2000/svg" width="512" height="512">
<path d="M0,0 L34,0 L61,3 L87,9 L108,16 L131,26 L145,34 L163,45 L169,50 L178,57 L188,66 L196,73 L202,79 L202,81 L205,82 L214,93 L222,103 L224,108 L226,108 L237,126 L248,146 L253,159 L257,169 L263,189 L269,219 L271,242 L271,275 L269,296 L263,325 L254,352 L249,363 L241,379 L233,393 L225,405 L215,418 L206,428 L199,436 L194,441 L181,453 L168,463 L166,463 L166,465 L147,477 L135,484 L120,491 L108,496 L87,503 L70,507 L62,509 L38,512 L-4,512 L-29,509 L-61,501 L-81,494 L-91,489 L-110,480 L-110,478 L-116,476 L-131,466 L-133,465 L-133,463 L-138,461 L-142,458 L-142,456 L-146,454 L-157,445 L-170,432 L-177,424 L-185,414 L-185,412 L-187,412 L-191,406 L-191,404 L-193,404 L-204,386 L-211,374 L-217,362 L-221,351 L-225,341 L-231,321 L-236,298 L-238,281 L-239,261 L-238,231 L-236,214 L-234,206 L-229,183 L-222,163 L-213,143 L-205,128 L-195,114 L-188,105 L-187,103 L-185,103 L-183,99 L-180,94 L-178,94 L-176,90 L-168,79 L-165,75 L-163,75 L-161,71 L-158,70 L-158,68 L-150,61 L-142,55 L-138,51 L-133,49 L-133,47 L-122,40 L-105,30 L-89,22 L-78,17 L-54,9 L-28,3 L-13,1 Z M1,56 L-22,59 L-45,65 L-58,70 L-70,75 L-86,84 L-101,94 L-112,103 L-124,114 L-131,121 L-140,132 L-150,146 L-158,159 L-166,176 L-173,194 L-180,223 L-182,240 L-182,274 L-179,297 L-172,324 L-163,345 L-154,362 L-147,373 L-137,386 L-128,397 L-123,402 L-118,407 L-107,416 L-92,427 L-71,439 L-55,446 L-38,452 L-9,458 L1,459 L34,459 L48,457 L68,453 L95,444 L111,436 L125,428 L142,416 L155,404 L169,390 L179,377 L190,360 L198,345 L206,325 L212,305 L216,280 L217,265 L217,250 L215,226 L211,206 L204,184 L195,164 L186,148 L176,134 L165,121 L160,115 L155,110 L141,98 L124,86 L108,77 L98,72 L83,66 L62,60 L44,57 L34,56 Z " fill="#EFCC47" transform="translate(240,0)"/>
<path d="M0,0 L4,0 L5,30 L11,14 L14,6 L17,6 L16,14 L13,23 L17,23 L18,26 L22,27 L20,23 L20,20 L22,20 L22,17 L25,17 L25,22 L27,22 L29,27 L26,28 L26,37 L29,38 L27,33 L31,32 L36,36 L39,37 L39,39 L43,40 L43,36 L47,37 L49,43 L52,44 L53,40 L59,39 L59,42 L61,42 L59,33 L57,33 L56,25 L60,25 L66,41 L66,43 L68,43 L66,30 L65,21 L69,21 L70,19 L73,19 L74,22 L77,23 L77,38 L73,38 L73,33 L71,33 L73,45 L89,46 L90,51 L92,51 L94,46 L98,45 L101,47 L104,44 L107,45 L107,47 L109,48 L109,54 L110,55 L110,64 L110,67 L109,70 L105,74 L102,74 L110,78 L110,82 L103,80 L101,76 L96,76 L95,79 L92,80 L108,96 L107,99 L103,99 L100,104 L100,105 L104,105 L102,109 L107,112 L109,117 L106,120 L103,121 L114,129 L113,132 L110,132 L111,136 L110,140 L107,140 L106,145 L103,144 L102,146 L100,146 L102,150 L102,153 L98,153 L94,146 L95,152 L91,151 L89,148 L91,155 L91,161 L87,159 L85,155 L84,163 L80,164 L78,167 L73,168 L72,167 L71,159 L68,154 L65,161 L62,162 L60,168 L57,168 L56,166 L53,171 L48,171 L48,173 L41,172 L40,174 L37,174 L36,170 L32,170 L33,165 L38,161 L38,158 L32,160 L31,167 L28,167 L27,164 L28,168 L36,176 L36,178 L31,177 L27,173 L25,177 L22,176 L21,168 L17,164 L16,170 L12,178 L18,178 L18,181 L28,181 L29,184 L14,186 L20,193 L20,196 L15,196 L11,191 L10,222 L20,222 L20,225 L17,225 L17,227 L10,227 L10,230 L19,230 L25,232 L24,235 L17,236 L19,237 L19,240 L12,240 L10,239 L10,252 L13,252 L13,255 L18,255 L18,253 L25,254 L26,257 L21,262 L19,263 L26,262 L36,266 L35,269 L28,271 L45,272 L44,276 L39,277 L31,277 L31,279 L38,279 L39,285 L35,287 L36,290 L38,290 L38,293 L30,296 L37,296 L39,300 L39,304 L29,305 L36,310 L36,313 L31,312 L27,309 L20,307 L20,312 L13,312 L21,318 L21,321 L25,323 L25,327 L21,326 L20,326 L23,328 L23,331 L18,330 L18,328 L14,326 L12,324 L13,329 L15,329 L16,335 L11,334 L11,336 L7,335 L7,333 L3,334 L-4,335 L-6,331 L-8,336 L-10,336 L-14,330 L-17,331 L-19,325 L-22,326 L-25,337 L-28,337 L-28,329 L-29,325 L-33,326 L-40,326 L-41,321 L-38,313 L-37,309 L-42,310 L-42,313 L-51,314 L-55,316 L-58,316 L-58,312 L-53,311 L-53,306 L-64,306 L-66,305 L-66,311 L-67,312 L-72,312 L-73,315 L-76,315 L-76,318 L-83,317 L-97,311 L-109,306 L-107,329 L-105,342 L-106,347 L-109,346 L-110,344 L-114,343 L-114,319 L-118,319 L-117,305 L-122,305 L-123,311 L-126,317 L-129,316 L-128,305 L-156,304 L-156,301 L-150,300 L-127,299 L-140,294 L-148,290 L-148,287 L-141,288 L-129,293 L-124,295 L-118,281 L-118,278 L-121,281 L-123,281 L-123,277 L-155,276 L-156,272 L-128,271 L-119,270 L-119,269 L-127,270 L-132,271 L-133,269 L-140,267 L-140,265 L-148,263 L-146,257 L-143,254 L-143,249 L-142,248 L-136,248 L-134,244 L-145,242 L-144,239 L-128,239 L-128,236 L-158,235 L-157,231 L-159,226 L-158,222 L-157,221 L-133,220 L-132,218 L-123,215 L-124,212 L-148,212 L-148,209 L-121,208 L-116,207 L-116,205 L-123,206 L-143,206 L-145,204 L-145,201 L-116,201 L-116,193 L-122,194 L-123,193 L-149,192 L-149,188 L-128,187 L-140,184 L-140,180 L-141,176 L-134,176 L-136,171 L-137,167 L-130,167 L-123,171 L-118,169 L-130,161 L-129,156 L-127,155 L-128,150 L-155,148 L-154,166 L-150,170 L-151,173 L-158,171 L-161,166 L-165,163 L-167,166 L-170,165 L-169,159 L-176,153 L-178,181 L-181,181 L-182,152 L-185,153 L-192,153 L-192,150 L-190,149 L-213,148 L-213,144 L-186,143 L-194,136 L-201,128 L-206,124 L-208,121 L-208,118 L-204,119 L-198,124 L-193,130 L-185,137 L-182,139 L-182,112 L-189,112 L-189,108 L-182,108 L-182,105 L-186,104 L-186,101 L-182,101 L-183,86 L-186,86 L-185,82 L-182,81 L-183,74 L-189,76 L-193,77 L-192,71 L-191,69 L-193,69 L-193,64 L-188,64 L-185,55 L-183,50 L-215,51 L-215,46 L-182,46 L-182,35 L-181,16 L-178,16 L-177,20 L-176,34 L-169,20 L-166,21 L-169,30 L-173,39 L-165,38 L-165,35 L-159,36 L-158,31 L-155,31 L-154,38 L-150,39 L-150,37 L-153,36 L-152,33 L-147,35 L-145,36 L-145,30 L-137,28 L-132,31 L-129,35 L-128,30 L-125,31 L-124,35 L-121,35 L-121,31 L-118,31 L-118,33 L-114,34 L-112,38 L-108,38 L-106,40 L-106,49 L-105,50 L-104,45 L-101,45 L-101,52 L-99,53 L-99,50 L-90,48 L-87,42 L-81,41 L-81,39 L-78,37 L-78,35 L-73,35 L-72,32 L-68,33 L-65,34 L-64,28 L-59,29 L-54,31 L-53,24 L-48,24 L-40,31 L-36,30 L-36,26 L-32,27 L-29,32 L-23,35 L-23,37 L-17,37 L-17,42 L-10,42 L-5,21 L-3,17 L-1,17 L-1,1 Z M-2,25 L-4,33 L-4,37 L-1,37 L-1,25 Z M13,29 L12,32 L16,33 L16,31 L18,30 Z M-62,32 Z M20,32 Z M21,33 L22,35 Z M-49,34 L-47,36 L-47,34 Z M-33,34 Z M-73,35 Z M-128,37 Z M-24,37 Z M-5,37 L-6,43 L-4,43 L-4,37 Z M30,38 Z M-174,39 L-173,42 Z M-147,40 Z M35,40 Z M-146,41 Z M61,43 L63,45 L63,43 Z M52,44 Z M53,45 Z M106,55 Z M105,56 Z M104,57 Z M-183,62 Z M-187,69 L-183,70 Z M87,90 Z M107,129 Z M108,130 Z M107,135 Z M91,141 L92,144 L92,141 Z M87,143 Z M72,148 L71,150 L73,152 Z M-165,148 L-171,149 L-169,153 L-165,156 L-162,150 L-162,148 Z M20,149 Z M14,150 L13,152 L18,151 Z M-160,152 L-162,156 L-161,161 L-159,162 L-159,152 Z M12,152 Z M33,152 L30,153 L30,156 L34,154 L36,152 Z M47,151 L45,152 L46,155 L46,153 L48,153 Z M20,155 L19,161 L22,161 L22,155 Z M26,156 L27,158 Z M-123,157 L-125,160 L-120,162 L-122,157 Z M10,157 L9,159 L11,159 Z M42,162 Z M57,162 Z M-130,174 Z M-129,175 L-125,179 L-124,177 Z M-124,179 Z M-137,180 Z M-110,207 Z M-118,217 L-120,219 L-116,218 Z M-154,226 L-154,227 L-147,227 L-147,226 Z M-123,226 L-137,228 L-137,229 L-129,230 L-120,230 L-122,226 Z M-121,236 L-123,239 L-120,239 Z M-128,243 L-132,248 L-123,248 L-122,243 Z M-118,244 Z M-121,252 L-122,256 L-115,255 L-115,253 L-120,254 Z M-128,253 L-133,255 L-133,256 L-126,255 L-125,253 Z M-124,260 L-124,262 L-121,261 Z M-128,260 L-132,262 L-127,262 Z M17,277 L17,278 L23,280 L27,279 L23,277 Z M20,290 Z M26,290 Z M21,291 Z M-100,305 L-97,307 L-88,311 L-86,311 L-86,305 Z M-79,305 L-78,307 Z M-49,306 L-49,308 L-45,307 Z M-79,309 L-81,310 L-80,314 L-76,315 L-77,310 Z M-34,317 Z M-25,317 L-24,320 Z M-35,318 Z M-17,319 L-16,321 Z M13,319 Z M9,320 Z M14,320 Z M10,321 L11,323 Z M17,322 Z " fill="#967F2C" transform="translate(308,100)"/>
<path d="M0,0 L4,0 L5,30 L11,14 L14,6 L17,6 L16,14 L13,23 L17,23 L18,26 L22,27 L20,23 L20,20 L22,20 L22,17 L25,17 L25,22 L27,22 L29,27 L26,28 L26,37 L29,38 L27,33 L31,32 L36,36 L39,37 L39,39 L43,40 L43,36 L47,37 L49,43 L52,44 L53,40 L59,39 L59,42 L61,42 L59,33 L57,33 L56,25 L60,25 L66,41 L66,43 L68,43 L66,30 L65,21 L69,21 L70,19 L73,19 L74,22 L77,23 L77,38 L73,38 L73,33 L71,33 L73,45 L89,46 L90,51 L92,51 L94,46 L98,45 L101,47 L104,44 L107,45 L107,47 L109,48 L109,54 L110,55 L110,64 L110,67 L109,70 L105,74 L102,74 L110,78 L110,82 L103,80 L101,76 L96,76 L95,79 L92,80 L108,96 L107,99 L103,99 L100,104 L100,105 L104,105 L102,109 L107,112 L109,117 L106,120 L103,121 L114,129 L113,132 L110,132 L111,136 L110,140 L107,140 L106,145 L103,144 L102,146 L100,146 L102,150 L102,153 L98,153 L94,146 L95,152 L91,151 L89,148 L91,155 L91,161 L87,159 L85,155 L84,163 L80,164 L78,167 L73,168 L72,167 L71,159 L68,154 L65,161 L62,162 L60,168 L57,168 L56,166 L53,171 L48,171 L48,173 L41,172 L40,174 L37,174 L36,170 L32,170 L33,165 L38,161 L38,158 L32,160 L31,167 L28,167 L27,164 L28,168 L36,176 L36,178 L31,177 L27,173 L25,177 L22,176 L21,168 L17,164 L16,170 L12,178 L18,178 L18,181 L28,181 L29,184 L14,186 L20,193 L20,196 L15,196 L11,191 L10,222 L20,222 L20,225 L17,225 L17,227 L10,227 L10,230 L19,230 L25,232 L24,235 L17,236 L19,237 L19,240 L12,240 L10,239 L10,252 L13,252 L13,255 L18,255 L18,253 L25,254 L26,257 L21,262 L19,263 L26,262 L36,266 L35,269 L28,271 L45,272 L44,276 L39,277 L31,277 L31,279 L38,279 L39,285 L35,287 L36,290 L38,290 L38,293 L30,296 L37,296 L39,300 L39,304 L29,305 L36,310 L36,313 L31,312 L27,309 L20,307 L20,312 L13,312 L21,318 L21,321 L25,323 L25,327 L21,326 L20,326 L23,328 L23,331 L18,330 L18,328 L14,326 L12,324 L13,329 L15,329 L16,335 L11,334 L11,336 L7,335 L7,333 L3,334 L-4,335 L-6,331 L-8,336 L-10,336 L-14,330 L-17,331 L-19,325 L-22,326 L-25,337 L-28,337 L-28,329 L-29,325 L-33,326 L-40,326 L-41,321 L-38,313 L-37,309 L-42,310 L-42,313 L-51,314 L-55,316 L-58,316 L-58,312 L-53,311 L-53,306 L-64,306 L-66,305 L-66,311 L-67,312 L-72,312 L-73,315 L-76,315 L-76,318 L-83,317 L-97,311 L-109,306 L-107,329 L-105,342 L-106,347 L-109,346 L-110,344 L-114,343 L-114,319 L-118,319 L-117,305 L-122,305 L-123,311 L-126,317 L-129,316 L-128,305 L-156,304 L-156,301 L-150,300 L-127,299 L-140,294 L-148,290 L-148,287 L-141,288 L-129,293 L-124,295 L-118,281 L-118,278 L-121,281 L-123,281 L-123,277 L-155,276 L-156,272 L-128,271 L-119,270 L-119,269 L-127,270 L-132,271 L-133,269 L-140,267 L-140,265 L-148,263 L-146,257 L-143,254 L-143,249 L-142,248 L-136,248 L-134,244 L-145,242 L-144,239 L-128,239 L-128,235 L-81,235 L-79,239 L-82,239 L-82,242 L-78,243 L-78,248 L-105,248 L-105,250 L-86,250 L-86,257 L-105,257 L-105,267 L-83,267 L-83,273 L-110,274 L-111,276 L-84,276 L-84,280 L-82,280 L-82,276 L-78,276 L-78,293 L-75,293 L-75,283 L-74,275 L-70,275 L-70,300 L-19,301 L-19,303 L-4,303 L-4,301 L-8,299 L-10,296 L-9,289 L-5,285 L6,285 L8,286 L8,277 L9,267 L23,267 L23,265 L8,265 L8,171 L5,174 L3,177 L3,148 L54,147 L65,147 L65,145 L58,144 L62,141 L68,137 L74,130 L78,128 L78,111 L77,106 L82,106 L82,103 L74,103 L70,99 L61,96 L61,94 L66,93 L66,91 L70,90 L79,90 L79,88 L73,88 L74,78 L74,64 L70,59 L70,57 L66,55 L63,50 L72,50 L72,47 L49,47 L3,46 L3,25 L1,26 L0,47 L-40,47 L-40,45 L-58,46 L-65,47 L-70,49 L-81,49 L-83,48 L-83,50 L-85,51 L-86,55 L-90,57 L-93,57 L-94,60 L-101,60 L-100,63 L-104,64 L-109,63 L-112,50 L-113,41 L-111,37 L-107,39 L-106,40 L-106,49 L-105,50 L-104,45 L-101,45 L-101,52 L-99,53 L-99,50 L-90,48 L-87,42 L-81,41 L-81,39 L-78,37 L-78,35 L-73,35 L-72,32 L-68,33 L-65,34 L-64,28 L-59,29 L-54,31 L-53,24 L-48,24 L-40,31 L-36,30 L-36,26 L-32,27 L-29,32 L-23,35 L-23,37 L-17,37 L-17,42 L-10,42 L-5,21 L-3,17 L-1,17 L-1,1 Z M-2,25 L-4,33 L-4,37 L-1,37 L-1,25 Z M13,29 L12,32 L16,33 L16,31 L18,30 Z M-62,32 Z M20,32 Z M21,33 L22,35 Z M-49,34 L-47,36 L-47,34 Z M-33,34 Z M-73,35 Z M-24,37 Z M-5,37 L-6,43 L-4,43 L-4,37 Z M30,38 Z M35,40 Z M61,43 L63,45 L63,43 Z M52,44 Z M53,45 Z M106,55 Z M105,56 Z M104,57 Z M87,90 Z M107,129 Z M108,130 Z M107,135 Z M91,141 L92,144 L92,141 Z M87,143 Z M72,148 L71,150 L73,152 Z M20,149 Z M14,150 L13,152 L18,151 Z M12,152 Z M33,152 L30,153 L30,156 L34,154 L36,152 Z M47,151 L45,152 L46,155 L46,153 L48,153 Z M20,155 L19,161 L22,161 L22,155 Z M26,156 L27,158 Z M10,157 L9,159 L11,159 Z M42,162 Z M57,162 Z M-121,236 L-123,239 L-120,239 Z M-128,243 L-132,248 L-123,248 L-122,243 Z M-118,244 Z M-121,252 L-122,256 L-115,255 L-115,253 L-120,254 Z M-128,253 L-133,255 L-133,256 L-126,255 L-125,253 Z M-124,260 L-124,262 L-121,261 Z M-128,260 L-132,262 L-127,262 Z M17,277 L17,278 L23,280 L27,279 L23,277 Z M20,290 Z M26,290 Z M21,291 Z M-100,305 L-97,307 L-88,311 L-86,311 L-86,305 Z M-79,305 L-78,307 Z M-49,306 L-49,308 L-45,307 Z M-79,309 L-81,310 L-80,314 L-76,315 L-77,310 Z M-34,317 Z M-25,317 L-24,320 Z M-35,318 Z M-17,319 L-16,321 Z M13,319 Z M9,320 Z M14,320 Z M10,321 L11,323 Z M17,322 Z " fill="#FCF2B9" transform="translate(308,100)"/>
<path d="M0,0 L2,0 L3,13 L2,94 L17,94 L17,96 L3,96 L3,106 L2,115 L-11,115 L-15,120 L-14,127 L-10,130 L-10,132 L-25,132 L-25,130 L-117,130 L-117,129 L-76,129 L-76,104 L-80,104 L-81,122 L-84,122 L-84,105 L-88,105 L-88,109 L-90,109 L-90,105 L-117,105 L-116,102 L-89,102 L-89,96 L-111,96 L-111,86 L-92,86 L-92,79 L-111,79 L-111,77 L-84,77 L-84,72 L-109,72 L-109,71 L-88,71 L-88,68 L-85,68 L-87,65 L-144,64 L-143,61 L-119,61 L-119,51 L-112,51 L-112,11 L-111,10 L-69,10 L-69,12 L-77,12 L-77,50 L-50,50 L-50,45 L-71,45 L-72,35 L-52,35 L-52,29 L-71,29 L-71,19 L-50,19 L-51,11 L-46,10 L-40,22 L-40,25 L-38,25 L-33,38 L-33,41 L-31,41 L-27,49 L-27,51 L-22,51 L-19,42 L-11,24 L-6,13 L-11,15 L-15,25 L-17,25 L-19,32 L-22,35 L-26,35 L-25,33 L-22,29 L-15,13 L-38,13 L-38,11 L0,10 Z " fill="#091656" transform="translate(314,271)"/>
<path d="M0,0 L3,0 L4,4 L5,18 L12,4 L15,5 L12,14 L8,23 L16,22 L16,19 L22,20 L23,15 L26,15 L27,22 L31,23 L31,21 L28,20 L29,17 L34,19 L36,20 L36,14 L44,12 L49,15 L52,19 L53,14 L56,15 L57,19 L60,19 L60,15 L63,15 L63,17 L67,18 L68,19 L68,25 L66,25 L66,31 L53,31 L54,34 L64,39 L69,43 L69,46 L71,46 L72,48 L72,57 L70,71 L65,80 L56,86 L54,83 L54,76 L57,76 L54,72 L50,73 L51,70 L56,65 L53,65 L54,56 L57,54 L61,54 L58,50 L59,48 L50,48 L50,46 L39,48 L25,47 L25,34 L23,34 L23,48 L17,48 L17,51 L22,51 L22,92 L3,92 L3,95 L22,95 L23,93 L35,93 L37,96 L37,100 L40,101 L40,103 L42,102 L43,99 L41,99 L41,97 L49,98 L49,96 L51,97 L50,99 L53,99 L53,97 L55,97 L55,95 L59,97 L67,110 L76,126 L76,128 L59,128 L59,132 L84,131 L107,131 L108,133 L108,148 L107,165 L76,166 L75,206 L68,206 L68,216 L44,217 L43,219 L23,219 L24,215 L22,210 L23,206 L24,205 L48,204 L49,202 L58,199 L57,196 L33,196 L33,193 L60,192 L65,191 L65,189 L58,190 L38,190 L36,188 L36,185 L65,185 L65,177 L59,178 L58,177 L32,176 L32,172 L53,171 L41,168 L41,164 L40,160 L47,160 L45,155 L44,151 L51,151 L58,155 L63,153 L51,145 L52,140 L54,139 L53,134 L26,132 L27,150 L31,154 L30,157 L23,155 L20,150 L16,147 L14,150 L11,149 L12,143 L5,137 L3,165 L0,165 L-1,136 L-4,137 L-11,137 L-11,134 L-9,133 L-32,132 L-32,128 L-5,127 L-13,120 L-20,112 L-25,108 L-27,105 L-27,102 L-23,103 L-17,108 L-12,114 L-4,121 L-1,123 L-1,96 L-8,96 L-8,92 L-1,92 L-1,89 L-5,88 L-5,85 L-1,85 L-2,70 L-5,70 L-4,66 L-1,65 L-2,58 L-8,60 L-12,61 L-11,55 L-10,53 L-12,53 L-12,48 L-7,48 L-4,39 L-2,34 L-34,35 L-34,30 L-1,30 L-1,19 Z M53,21 Z M7,23 L8,26 Z M34,24 Z M35,25 Z M-2,46 Z M-6,53 L-2,54 Z M16,132 L10,133 L12,137 L16,140 L19,134 L19,132 Z M21,136 L19,140 L20,145 L22,146 L22,136 Z M58,141 L56,144 L61,146 L59,141 Z M51,158 Z M52,159 L56,163 L57,161 Z M57,163 Z M44,164 Z M71,191 Z M63,201 L61,203 L65,202 Z M27,210 L27,211 L34,211 L34,210 Z M58,210 L44,212 L44,213 L52,214 L61,214 L59,210 Z " fill="#06080D" transform="translate(127,116)"/>
<path d="M0,0 L2,0 L2,21 L63,21 L71,22 L71,25 L63,26 L67,31 L71,35 L74,39 L74,53 L73,62 L78,63 L78,65 L65,66 L65,68 L60,69 L60,71 L69,73 L71,77 L81,78 L81,81 L76,81 L78,88 L78,104 L73,106 L66,114 L59,118 L64,120 L64,122 L52,123 L48,121 L51,121 L51,118 L46,119 L2,119 L2,25 L21,25 L21,23 L2,23 L1,22 L1,15 L-1,15 L-1,1 Z " fill="#2B344E" transform="translate(309,125)"/>
<path d="M0,0 L12,0 L23,1 L23,3 L28,4 L40,10 L39,14 L35,21 L33,24 L36,23 L39,18 L41,18 L41,39 L40,44 L23,44 L22,26 L21,26 L20,44 L9,44 L9,19 L-5,18 L-5,20 L-3,19 L6,19 L6,44 L-19,45 L-19,38 L-20,48 L40,48 L40,55 L38,55 L38,57 L40,57 L40,87 L33,92 L26,93 L26,95 L12,96 L-1,96 L-16,93 L-16,89 L-20,90 L-28,85 L-35,76 L-41,64 L-43,53 L-43,39 L-41,34 L-40,27 L-33,16 L-26,10 L-16,4 L-7,1 Z " fill="#828FD4" transform="translate(253,149)"/>
<path d="M0,0 L47,0 L49,4 L46,4 L46,7 L50,8 L50,13 L23,13 L23,15 L42,15 L42,22 L23,22 L23,32 L45,32 L45,38 L18,39 L17,41 L44,41 L44,45 L46,45 L46,41 L50,41 L50,58 L53,58 L53,48 L54,40 L58,40 L58,65 L109,66 L109,68 L124,68 L124,66 L120,64 L118,61 L119,54 L124,51 L129,51 L129,54 L123,54 L122,60 L130,60 L133,60 L132,64 L139,66 L139,69 L62,70 L62,76 L61,77 L56,77 L55,80 L52,80 L52,83 L45,82 L31,76 L19,71 L21,94 L23,107 L22,112 L19,111 L18,109 L14,108 L14,84 L10,84 L11,70 L6,70 L5,76 L2,82 L-1,81 L0,70 L-28,69 L-28,66 L-22,65 L1,64 L-12,59 L-20,55 L-20,52 L-13,53 L-1,58 L4,60 L10,46 L10,43 L7,46 L5,46 L5,42 L-27,41 L-28,37 L0,36 L9,35 L9,34 L1,35 L-4,36 L-5,34 L-12,32 L-12,30 L-20,28 L-18,22 L-15,19 L-15,14 L-14,13 L-8,13 L-6,9 L-17,7 L-16,4 L0,4 Z M7,1 L5,4 L8,4 Z M0,8 L-4,13 L5,13 L6,8 Z M10,9 Z M7,17 L6,21 L13,20 L13,18 L8,19 Z M0,18 L-5,20 L-5,21 L2,20 L3,18 Z M4,25 L4,27 L7,26 Z M0,25 L-4,27 L1,27 Z M28,70 L31,72 L40,76 L42,76 L42,70 Z M49,70 L50,72 Z M49,74 L47,75 L48,79 L52,80 L51,75 Z " fill="#7E6F2E" transform="translate(180,335)"/>
<path d="M0,0 L42,0 L42,2 L34,2 L34,40 L56,40 L56,41 L44,42 L43,43 L38,43 L39,52 L38,54 L57,54 L58,53 L64,53 L64,92 L63,94 L39,94 L38,119 L47,119 L47,120 L-6,120 L-6,119 L35,119 L35,94 L31,94 L30,112 L27,112 L27,95 L23,95 L23,99 L21,99 L21,95 L-6,95 L-5,92 L22,92 L22,86 L0,86 L0,76 L19,76 L19,69 L0,69 L0,67 L27,67 L27,62 L2,62 L2,61 L23,61 L23,58 L26,58 L24,55 L-33,54 L-32,51 L-8,51 L-8,41 L-1,41 L-1,1 Z " fill="#091132" transform="translate(203,281)"/>
<path d="M0,0 L22,0 L22,20 L20,21 L14,16 L13,22 L9,30 L15,30 L15,33 L25,33 L26,36 L11,38 L17,45 L17,48 L12,48 L8,43 L7,74 L17,74 L17,77 L14,77 L14,79 L7,79 L7,82 L16,82 L22,84 L21,87 L14,88 L16,89 L16,92 L9,92 L7,91 L7,104 L10,104 L10,107 L15,107 L15,105 L22,106 L23,109 L18,114 L16,115 L23,114 L33,118 L32,121 L25,123 L42,124 L41,128 L36,129 L28,129 L28,131 L35,131 L36,137 L32,139 L33,142 L35,142 L35,145 L27,148 L34,148 L36,152 L36,156 L26,157 L33,162 L33,165 L28,164 L24,161 L17,159 L17,164 L10,164 L18,170 L18,173 L22,175 L22,179 L18,178 L17,178 L20,180 L20,183 L15,182 L15,180 L11,178 L9,176 L10,181 L12,181 L13,187 L8,186 L8,188 L4,187 L4,185 L0,186 L-7,187 L-9,183 L-11,188 L-13,188 L-17,182 L-20,183 L-22,177 L-25,178 L-28,189 L-31,189 L-31,181 L-32,177 L-36,178 L-43,178 L-44,173 L-41,165 L-40,161 L-45,162 L-45,165 L-54,166 L-58,168 L-61,168 L-61,164 L-56,163 L-56,158 L-67,158 L-67,156 L8,156 L8,153 L2,153 L0,151 L1,147 L-6,148 L-9,147 L-8,141 L-2,140 L-2,139 L-7,139 L-11,141 L-8,137 L3,137 L5,138 L5,129 L6,119 L20,119 L20,117 L5,117 L5,23 L2,26 L0,29 Z M17,1 Z M11,2 L10,4 L15,3 Z M9,4 Z M17,7 L16,13 L19,13 L19,7 Z M7,9 L6,11 L8,11 Z M14,129 L14,130 L20,132 L24,131 L20,129 Z M17,142 Z M23,142 Z M18,143 Z M-52,158 L-52,160 L-48,159 Z M-37,169 Z M-28,169 L-27,172 Z M-38,170 Z M-20,171 L-19,173 Z M10,171 Z M6,172 Z M11,172 Z M7,173 L8,175 Z M14,174 Z " fill="#F0DD99" transform="translate(311,248)"/>
<path d="M0,0 L65,0 L66,2 L66,17 L65,34 L34,35 L33,75 L26,75 L26,85 L2,86 L1,88 L-19,88 L-18,84 L-20,79 L-19,75 L-18,74 L6,73 L7,71 L16,68 L15,65 L-9,65 L-9,62 L18,61 L23,60 L23,58 L16,59 L-4,59 L-6,57 L-6,54 L23,54 L23,46 L17,47 L16,46 L-10,45 L-10,41 L11,40 L-1,37 L-1,33 L-2,29 L5,29 L3,24 L2,20 L9,20 L16,24 L21,22 L9,14 L10,9 L12,8 L11,3 L0,2 Z M16,10 L14,13 L19,15 L17,10 Z M9,27 Z M10,28 L14,32 L15,30 Z M15,32 Z M2,33 Z M29,60 Z M21,70 L19,72 L23,71 Z M-15,79 L-15,80 L-8,80 L-8,79 Z M16,79 L2,81 L2,82 L10,83 L19,83 L17,79 Z " fill="#FCF1C2" transform="translate(169,247)"/>
<path d="M0,0 L18,0 L18,20 L20,20 L21,1 L31,1 L32,4 L32,33 L28,34 L-13,35 L-12,37 L-12,43 L-33,43 L-33,53 L-14,53 L-14,59 L-34,59 L-33,62 L-33,69 L-12,69 L-12,74 L-39,74 L-39,36 L-31,36 L-31,34 L-39,34 L-39,3 L-31,2 L-3,2 L-2,17 L-1,17 Z " fill="#CBB35C" transform="translate(276,247)"/>
<path d="M0,0 L4,2 L3,4 L30,4 L30,8 L32,8 L32,4 L36,4 L36,21 L39,21 L39,11 L40,3 L44,3 L44,28 L95,29 L95,31 L110,31 L110,29 L106,27 L104,24 L105,17 L110,14 L115,14 L115,17 L109,17 L108,23 L116,23 L119,23 L118,27 L125,29 L125,32 L48,33 L48,39 L47,40 L42,40 L41,43 L38,43 L38,46 L31,45 L17,39 L5,34 L7,57 L9,70 L8,75 L5,74 L4,72 L0,71 L0,47 L-4,47 L-3,33 L-8,33 L-9,39 L-12,45 L-15,44 L-14,33 L-34,32 L-34,29 L0,29 Z M14,33 L17,35 L26,39 L28,39 L28,33 Z M35,33 L36,35 Z M35,37 L33,38 L34,42 L38,43 L37,38 Z " fill="#13150F" transform="translate(194,372)"/>
<path d="M0,0 L30,0 L34,8 L35,12 L34,13 L25,13 L22,12 L23,16 L35,16 L35,18 L39,19 L39,29 L37,32 L34,41 L29,55 L24,66 L28,67 L26,67 L26,70 L22,70 L23,75 L22,92 L3,92 L-6,91 L-6,74 L-5,66 L19,66 L20,25 L11,27 L-6,26 L-6,15 L0,13 L17,12 L17,7 L12,7 L14,6 L14,3 L11,5 L0,5 L-1,2 Z " fill="#0C174B" transform="translate(247,309)"/>
<path d="M0,0 L2,0 L2,13 L19,13 L27,12 L27,14 L33,13 L36,14 L38,20 L33,22 L30,31 L33,31 L31,35 L28,38 L32,37 L34,42 L31,42 L33,51 L38,50 L37,53 L35,53 L36,57 L44,70 L46,75 L48,75 L53,83 L56,90 L59,96 L58,97 L36,97 L36,94 L53,94 L45,80 L40,71 L34,62 L32,61 L32,63 L30,63 L30,65 L27,65 L26,64 L18,63 L18,65 L20,65 L19,69 L17,69 L14,66 L12,60 L0,59 L0,70 L-1,70 L-1,61 L-20,61 L-20,58 L-1,58 L-1,17 L-6,17 L-6,14 L0,14 Z " fill="#3F4FAC" transform="translate(150,150)"/>
<path d="M0,0 L2,0 L3,7 L22,8 L22,10 L3,10 L3,104 L52,103 L52,106 L46,108 L2,108 L0,109 L-1,105 L-1,10 L-20,11 L-15,16 L-10,18 L-12,98 L-16,98 L-17,101 L-19,101 L-19,103 L-35,107 L-53,108 L-66,106 L-66,103 L-56,104 L-29,104 L-29,102 L-21,99 L-16,96 L-15,66 L-17,66 L-17,64 L-15,64 L-15,57 L-75,57 L-75,63 L-76,63 L-76,53 L-74,44 L-73,48 L-74,54 L-65,53 L-49,53 L-49,28 L-60,29 L-60,27 L-42,27 L-37,28 L-37,29 L-44,29 L-46,28 L-46,53 L-35,53 L-35,35 L-32,35 L-32,53 L-15,53 L-14,27 L-16,27 L-18,32 L-22,33 L-20,29 L-16,22 L-16,19 L-32,12 L-32,10 L-55,10 L-66,12 L-78,18 L-84,22 L-86,22 L-84,18 L-75,12 L-67,9 L-58,7 L0,7 Z " fill="#424B58" transform="translate(308,140)"/>
<path d="M0,0 L33,0 L33,7 L31,7 L31,9 L33,9 L33,39 L26,44 L19,45 L19,47 L-1,48 L-1,38 L-9,38 L-9,40 L-14,41 L-17,36 L-16,44 L-19,43 L-21,35 L-20,31 L-21,27 L-16,26 L-8,31 L6,31 L13,29 L14,16 L4,16 L1,15 L0,13 Z " fill="#031566" transform="translate(260,197)"/>
<path d="M0,0 L3,1 L0,10 L-9,9 L-9,11 L-12,11 L-12,13 L-15,13 L-15,16 L-9,16 L-12,18 L-14,18 L-12,30 L-12,38 L-14,36 L-14,33 L-16,33 L-15,42 L-17,42 L-17,44 L-13,44 L-11,50 L-12,61 L-9,61 L-4,72 L1,88 L3,89 L1,80 L4,83 L6,85 L8,84 L10,85 L10,83 L18,83 L18,93 L4,92 L-4,90 L-4,86 L-8,87 L-16,82 L-23,73 L-29,61 L-31,50 L-31,36 L-29,31 L-28,24 L-21,13 L-14,7 L-4,1 Z " fill="#95A0DB" transform="translate(241,152)"/>
<path d="M0,0 L2,0 L2,21 L63,21 L71,22 L71,25 L63,26 L67,31 L71,35 L73,42 L72,43 L65,43 L59,42 L53,42 L54,45 L53,48 L54,57 L54,62 L66,63 L63,66 L50,66 L50,68 L44,67 L25,66 L25,63 L42,62 L47,59 L49,55 L48,46 L47,44 L41,42 L23,41 L22,44 L21,42 L13,42 L13,40 L21,39 L21,23 L2,23 L1,22 L1,15 L-1,15 L-1,1 Z " fill="#0E238D" transform="translate(309,125)"/>
<path d="M0,0 L3,0 L4,4 L5,18 L12,4 L15,5 L12,14 L8,23 L16,22 L16,19 L22,20 L23,15 L26,15 L27,22 L31,23 L31,21 L28,20 L29,17 L34,19 L36,20 L36,14 L44,12 L49,15 L52,19 L53,14 L56,15 L57,19 L60,19 L60,15 L63,15 L63,17 L67,18 L68,19 L68,25 L66,25 L66,31 L-8,31 L-8,34 L-23,35 L-34,35 L-34,30 L-1,30 L-1,19 Z M53,21 Z M7,23 L8,26 Z M34,24 Z M35,25 Z " fill="#BE9E3B" transform="translate(127,116)"/>
<path d="M0,0 L20,0 L20,14 L14,14 L14,17 L19,17 L19,58 L0,58 Z " fill="#F6F7FC" transform="translate(130,150)"/>
<path d="M0,0 L47,0 L49,4 L46,4 L46,7 L50,8 L50,13 L14,13 L14,22 L-7,22 L-7,24 L9,24 L8,28 L-2,30 L-4,30 L-4,33 L-11,33 L-12,30 L-20,28 L-18,22 L-15,19 L-15,14 L-14,13 L-8,13 L-6,9 L-17,7 L-16,4 L0,4 Z M7,1 L5,4 L8,4 Z M0,8 L-4,13 L5,13 L6,8 Z M10,9 Z M7,17 L6,21 L13,20 L13,18 L8,19 Z M0,18 L-5,20 L-5,21 L2,20 L3,18 Z M4,25 L4,27 L7,26 Z M0,25 L-4,27 L1,27 Z " fill="#FDF3C7" transform="translate(180,335)"/>
<path d="M0,0 L2,1 L5,13 L6,21 L12,23 L14,22 L14,19 L21,19 L22,17 L29,15 L30,10 L32,10 L32,8 L47,8 L50,6 L72,4 L75,5 L75,7 L57,8 L42,12 L32,18 L30,22 L25,30 L24,28 L21,29 L18,35 L16,36 L14,46 L14,59 L16,69 L20,81 L17,80 L17,77 L15,77 L14,71 L11,66 L11,64 L8,64 L7,66 L5,66 L5,69 L1,69 L1,67 L-1,66 L0,62 L3,60 L1,59 L1,61 L-5,64 L-7,64 L-8,67 L-9,65 L-6,62 L-5,58 L0,53 L3,47 L5,33 L5,22 L3,22 L2,19 L-5,14 L-13,10 L-13,7 L0,7 L-1,1 Z " fill="#CDB155" transform="translate(193,140)"/>
<path d="M0,0 L33,0 L33,20 L29,16 L25,15 L25,23 L22,23 L23,32 L-3,32 L-3,1 Z " fill="#EDD582" transform="translate(240,249)"/>
<path d="M0,0 L22,0 L22,20 L20,21 L14,16 L13,22 L9,30 L15,30 L15,33 L25,33 L26,36 L11,38 L17,45 L17,48 L12,48 L8,43 L7,74 L17,74 L17,77 L14,77 L14,79 L7,79 L7,82 L16,82 L22,84 L21,87 L14,88 L16,89 L16,92 L9,92 L7,91 L7,106 L6,117 L5,117 L5,23 L2,26 L0,29 Z M17,1 Z M11,2 L10,4 L15,3 Z M9,4 Z M17,7 L16,13 L19,13 L19,7 Z M7,9 L6,11 L8,11 Z " fill="#EED78C" transform="translate(311,248)"/>
<path d="M0,0 L27,0 L28,15 L41,16 L41,29 L33,32 L19,32 L8,25 L2,16 L0,10 Z " fill="#CBB158" transform="translate(233,197)"/>
<path d="M0,0 L5,1 L12,4 L12,9 L10,10 L9,12 L14,9 L21,9 L26,10 L24,15 L28,16 L30,17 L30,15 L38,16 L37,19 L24,19 L24,17 L6,18 L-1,19 L-6,21 L-17,21 L-19,20 L-19,22 L-21,23 L-22,27 L-26,29 L-29,29 L-30,32 L-37,32 L-36,35 L-40,36 L-45,35 L-48,22 L-49,13 L-47,9 L-43,11 L-42,12 L-42,21 L-41,22 L-40,17 L-37,17 L-37,24 L-35,25 L-35,22 L-26,20 L-23,14 L-17,13 L-17,11 L-14,9 L-14,7 L-9,7 L-8,4 L-4,5 L-1,6 Z M2,4 Z M-9,7 Z " fill="#F0DEA0" transform="translate(244,128)"/>
<path d="M0,0 L19,0 L29,3 L37,7 L43,14 L46,23 L46,32 L43,41 L40,46 L31,52 L29,49 L29,42 L32,42 L29,38 L25,39 L26,36 L31,31 L28,31 L29,22 L32,20 L36,20 L33,16 L34,14 L25,14 L25,12 L14,14 L0,13 Z " fill="#9DA7DD" transform="translate(152,150)"/>
<path d="M0,0 L4,0 L4,25 L-37,25 L-36,1 L-10,1 L-10,5 L-8,5 L-8,1 L-4,1 L-4,18 L-1,18 L-1,8 Z " fill="#C5CBEB" transform="translate(234,375)"/>
<path d="M0,0 L7,0 L8,2 L22,3 L22,33 L-7,33 L-7,9 L-4,3 L0,5 L0,7 L2,7 Z " fill="#F8EDC7" transform="translate(212,248)"/>
<path d="M0,0 L3,0 L3,3 L8,3 L8,1 L15,2 L16,5 L11,10 L9,11 L16,10 L26,14 L25,17 L18,19 L35,20 L34,24 L29,25 L21,25 L21,27 L28,27 L29,33 L25,35 L26,38 L28,38 L28,41 L20,44 L27,44 L29,48 L29,52 L22,52 L22,50 L14,49 L14,47 L12,47 L11,44 L14,41 L9,40 L7,34 L9,34 L8,29 L5,29 L4,26 L7,25 L16,27 L8,25 L9,21 L-1,20 L-1,15 L13,15 L13,13 L-1,13 L-1,2 Z M10,38 Z M16,38 Z M11,39 Z " fill="#F7EDCC" transform="translate(318,352)"/>
<path d="M0,0 L4,5 L2,7 L5,9 L8,9 L11,13 L11,16 L14,17 L14,20 L16,20 L14,13 L16,10 L18,10 L18,6 L12,11 L11,10 L11,5 L9,5 L9,2 L14,0 L21,3 L20,29 L3,29 L4,33 L3,35 L9,33 L10,36 L8,36 L10,41 L4,42 L3,41 L-23,40 L-23,36 L-2,35 L-14,32 L-14,28 L-15,24 L-8,24 L-10,19 L-11,15 L-4,15 L3,19 L8,17 L-4,9 L-3,4 L-1,3 Z M-4,22 Z M-3,23 L1,27 L2,25 Z M2,27 Z M-11,28 Z " fill="#FAF1CF" transform="translate(182,252)"/>
<path d="M0,0 L10,0 L8,1 L8,3 L31,3 L29,10 L22,24 L26,22 L29,15 L31,15 L32,10 L35,4 L40,3 L37,13 L29,29 L26,38 L24,41 L19,41 L15,33 L15,31 L13,31 L8,17 L8,15 L6,15 L0,1 Z " fill="#0B193E" transform="translate(268,281)"/>
<path d="M0,0 L7,0 L7,2 L31,3 L31,8 L26,8 L21,5 L25,13 L24,21 L19,26 L18,30 L25,38 L25,41 L18,41 L10,30 L6,29 L0,29 L0,41 L-1,41 L-1,1 Z " fill="#9A8941" transform="translate(203,281)"/>
<path d="M0,0 L5,0 L5,7 L12,7 L18,16 L23,21 L26,26 L28,26 L29,0 L33,0 L33,30 L30,30 L30,32 L33,33 L33,37 L27,36 L16,24 L11,18 L8,17 L10,21 L12,21 L18,29 L24,37 L8,37 L7,34 L5,38 L0,38 L-2,31 L-1,24 L1,24 L1,17 L4,17 L4,14 L-1,13 L-1,7 L0,5 Z " fill="#1E2739" transform="translate(233,335)"/>
<path d="M0,0 L7,0 L7,3 L5,5 L-1,5 L2,6 L4,10 L-3,18 L-5,21 L-3,21 L10,6 L15,1 L15,3 L17,3 L17,1 L22,1 L23,6 L19,14 L16,15 L14,21 L11,21 L10,19 L7,24 L2,24 L2,26 L-5,25 L-6,27 L-9,27 L-10,23 L-14,23 L-13,18 L-8,14 L-8,11 L-14,13 L-15,20 L-18,20 L-19,17 L-18,21 L-10,29 L-10,31 L-15,30 L-19,26 L-21,30 L-24,29 L-24,21 L-22,21 L-21,1 Z M-13,5 L-16,6 L-16,9 L-12,7 L-10,5 Z M-20,9 L-19,11 Z M-4,15 Z M11,15 Z " fill="#F9F0CF" transform="translate(354,247)"/>
<path d="M0,0 L2,0 L2,80 L0,79 L-6,64 L-11,53 L-12,45 L-14,44 L-15,36 L-8,19 L-3,7 Z " fill="#98A1CF" transform="translate(312,284)"/>
<path d="M0,0 L15,0 L18,6 L10,7 L9,9 L20,10 L19,15 L21,16 L16,15 L14,14 L14,12 L11,13 L10,17 L5,18 L1,17 L-5,19 L-3,19 L1,20 L-2,21 L-3,23 L3,20 L7,22 L4,24 L2,24 L2,27 L7,29 L7,35 L-17,35 L-17,13 L-13,13 L-13,10 L-3,8 L-1,1 Z " fill="#1E3291" transform="translate(286,366)"/>
<path d="M0,0 L3,1 L-1,3 L0,10 L3,9 L4,6 L10,5 L15,14 L14,18 L16,18 L17,21 L21,25 L25,35 L35,40 L36,45 L15,45 L10,37 L4,28 L4,26 L2,26 L-8,10 L-8,5 L-2,2 L0,2 Z " fill="#F2E7C7" transform="translate(194,199)"/>
<path d="M0,0 L2,0 L3,13 L2,94 L17,94 L17,96 L3,96 L3,106 L2,115 L-11,114 L-11,113 L0,113 L-1,100 L-4,96 L-9,82 L-9,80 L-11,80 L-14,71 L-10,71 L-3,86 L-1,92 L0,13 L-2,13 L-3,18 L-8,31 L-13,41 L-14,44 L-17,47 L-19,54 L-23,53 L-21,48 L-18,39 L-8,18 L-6,13 L-11,15 L-15,25 L-17,25 L-19,32 L-22,35 L-26,35 L-25,33 L-22,29 L-15,13 L-38,13 L-38,11 L0,10 Z " fill="#12181F" transform="translate(314,271)"/>
<path d="M0,0 L4,1 L9,12 L9,15 L11,15 L16,28 L16,31 L18,31 L23,41 L23,43 L18,43 L16,37 L12,29 L-18,28 L-18,32 L-7,32 L-4,31 L-4,34 L-6,35 L-22,35 L-23,25 L-3,25 L-3,19 L-22,19 L-22,9 L-1,9 L-2,1 Z " fill="#101D56" transform="translate(265,281)"/>
<path d="M0,0 L19,0 L19,14 L17,15 L11,15 L11,17 L19,17 L19,37 L0,38 Z " fill="#B3BADD" transform="translate(311,150)"/>
<path d="M0,0 L65,0 L66,2 L66,17 L65,17 L65,4 L51,4 L50,1 L43,1 L45,5 L45,8 L43,8 L40,5 L37,10 L36,34 L34,35 L33,52 L29,49 L25,48 L21,44 L21,41 L23,41 L22,39 L16,40 L16,34 L33,34 L33,11 L34,8 L29,7 L26,6 L22,7 L22,10 L24,10 L25,15 L29,11 L31,11 L31,15 L28,18 L29,25 L27,25 L26,22 L24,21 L20,14 L17,12 L14,7 L14,5 L12,5 L11,3 L0,2 Z " fill="#EAD699" transform="translate(169,247)"/>
<path d="M0,0 L28,0 L41,5 L44,7 L44,0 L64,0 L64,7 L63,8 L58,8 L57,11 L54,11 L54,14 L47,13 L33,7 L21,2 L23,25 L25,38 L24,43 L21,42 L20,40 L16,39 L16,15 L12,15 L13,1 L8,1 L7,7 L4,13 L1,12 L2,1 Z M51,5 L49,6 L50,10 L54,11 L53,6 Z " fill="#F6ECC7" transform="translate(178,404)"/>
<path d="M0,0 L4,1 L9,13 L10,17 L12,17 L17,29 L20,38 L14,38 L11,31 L-9,31 L-11,37 L-12,38 L-17,38 L-15,29 L-7,13 L-2,2 L0,2 Z " fill="#E9D89A" transform="translate(293,334)"/>
<path d="M0,0 L2,0 L2,21 L1,26 L-16,26 L-17,8 L-18,8 L-19,26 L-30,26 L-30,1 L-19,2 L-8,8 L-8,10 L-5,10 L-3,5 Z " fill="#F6E49F" transform="translate(292,167)"/>
<path d="M0,0 L4,2 L12,15 L21,31 L21,33 L1,33 L-11,14 L-14,8 L-12,4 L-14,4 L-14,2 L-6,3 L-6,1 L-4,2 L-5,4 L-2,4 L-2,2 L0,2 Z " fill="#F6F7FB" transform="translate(182,211)"/>
<path d="M0,0 L19,0 L19,33 L0,33 Z " fill="#FDFDFE" transform="translate(130,211)"/>
<path d="M0,0 L10,0 L10,3 L9,5 L6,7 L6,9 L9,9 L10,14 L8,14 L11,20 L15,21 L13,27 L15,27 L15,29 L23,29 L23,32 L9,32 L7,36 L6,38 L-3,37 L-6,38 L-6,32 L2,32 L2,29 L-4,29 L-6,27 L-5,23 L-12,24 L-15,23 L-14,17 L-8,16 L-8,15 L-13,15 L-17,17 L-14,13 L-3,13 L-1,14 L-1,5 Z " fill="#EED88C" transform="translate(317,372)"/>
<path d="M0,0 L29,0 L29,3 L32,3 L32,5 L38,5 L38,7 L42,5 L45,6 L50,15 L52,15 L52,20 L54,23 L54,27 L57,26 L56,31 L54,31 L50,25 L47,26 L45,20 L42,21 L39,32 L36,32 L36,24 L35,20 L31,21 L24,21 L23,16 L26,8 L27,4 L22,5 L22,8 L13,9 L9,11 L6,11 L6,7 L11,6 L11,1 L0,1 Z M15,1 L15,3 L19,2 Z M30,12 Z M39,12 L40,15 Z M29,13 Z M47,14 L48,16 Z " fill="#F7EDC6" transform="translate(244,405)"/>
<path d="M0,0 L13,0 L17,1 L17,3 L22,5 L24,8 L24,18 L21,23 L19,23 L19,25 L13,27 L0,27 Z " fill="#FCFBF8" transform="translate(152,166)"/>
<path d="M0,0 L12,0 L23,1 L23,3 L28,4 L40,10 L39,14 L35,21 L33,24 L35,24 L34,28 L31,28 L30,26 L24,23 L25,20 L23,20 L23,18 L18,17 L14,15 L14,13 L9,12 L9,6 L5,9 L0,7 L-2,5 L-6,9 L-5,5 L-4,1 Z " fill="#919DD9" transform="translate(253,149)"/>
<path d="M0,0 L18,0 L18,28 L10,32 L3,33 L1,32 L-1,26 Z " fill="#FCFAF1" transform="translate(276,247)"/>
<path d="M0,0 L2,0 L3,7 L22,8 L22,10 L3,10 L3,104 L52,103 L52,106 L46,108 L2,108 L0,109 L-1,105 L-1,54 Z " fill="#080E18" transform="translate(308,140)"/>
<path d="M0,0 L21,0 L26,4 L27,6 L27,16 L21,21 L0,21 Z " fill="#FCF4C6" transform="translate(334,206)"/>
<path d="M0,0 L9,0 L9,25 L-16,26 L-15,14 L-10,6 L-3,1 Z " fill="#FBF7E9" transform="translate(250,168)"/>
<path d="M0,0 L4,1 L15,13 L19,18 L23,21 L23,23 L1,23 L0,48 L9,48 L9,49 L-44,49 L-44,48 L-3,48 L-3,23 L-7,23 L-8,41 L-11,41 L-11,24 L-15,24 L-15,28 L-17,28 L-17,24 L-44,24 L-43,21 L-16,20 L-14,19 L-11,20 L-11,4 L-9,1 L-9,15 L-8,20 L-3,20 L-1,16 L0,20 L15,19 L6,9 L4,4 L0,5 Z " fill="#010C3B" transform="translate(241,352)"/>
<path d="M0,0 L8,0 L14,11 L20,21 L25,31 L25,32 L0,32 Z " fill="#F5ECD2" transform="translate(153,212)"/>
<path d="M0,0 L16,0 L23,3 L25,8 L24,17 L20,21 L17,22 L-1,22 L-1,1 Z " fill="#F8F2C5" transform="translate(334,166)"/>
<path d="M0,0 L6,2 L10,7 L11,2 L14,3 L15,7 L18,7 L18,3 L21,3 L21,5 L25,6 L26,7 L26,13 L24,13 L24,19 L2,19 L-7,17 L-11,13 L-13,11 L-11,11 L-11,9 L-14,8 L-13,5 L-8,7 L-6,8 L-6,2 Z M11,9 Z M-8,12 Z M-7,13 Z " fill="#F5ECCD" transform="translate(169,128)"/>
<path d="M0,0 L24,0 L23,4 L12,11 L7,13 L1,14 L-21,14 L-21,1 Z " fill="#C6CBE9" transform="translate(354,230)"/>
<path d="M0,0 L20,0 L20,44 L10,44 L10,11 L11,8 L6,7 L1,2 Z " fill="#FDF2BF" transform="translate(287,150)"/>
<path d="M0,0 L24,0 L37,4 L42,9 L45,11 L45,14 L26,14 L25,9 L22,9 L22,13 L1,13 Z " fill="#ADB4DC" transform="translate(333,150)"/>
<path d="M0,0 L8,0 L8,52 L10,52 L11,44 L12,44 L12,62 L11,73 L8,73 L7,44 L4,45 L-3,45 L-3,42 L-1,41 L-24,40 L-24,36 L3,35 L-5,28 L-12,20 L-17,16 L-19,13 L-19,10 L-15,11 L-9,16 L-4,22 L4,29 L7,31 L7,4 L0,4 Z " fill="#E7D189" transform="translate(119,208)"/>
<path d="M0,0 L10,0 L10,47 L0,47 Z " fill="#FCEA8F" transform="translate(297,197)"/>
<path d="M0,0 L4,0 L4,21 L3,37 L-2,37 L-2,32 L-24,32 L-24,22 L-5,22 L-5,15 L-24,15 L-24,13 L3,13 L3,8 L-22,8 L-22,7 L-1,7 L-1,4 L2,4 Z " fill="#010E56" transform="translate(227,335)"/>
<path d="M0,0 L4,1 L12,11 L8,13 L-4,13 L-4,15 L21,16 L21,23 L-14,23 L-14,13 L-6,13 L-6,1 Z " fill="#0E1A58" transform="translate(209,309)"/>
<path d="M0,0 L12,0 L12,2 L16,3 L16,13 L14,16 L11,25 L6,37 L4,39 L0,39 L0,9 L8,9 L8,7 L0,7 Z " fill="#C6CCEB" transform="translate(270,325)"/>
<path d="M0,0 L3,0 L3,23 L-4,28 L-14,30 L-14,16 L-13,1 L-4,1 Z " fill="#97A2DC" transform="translate(290,213)"/>
<path d="M0,0 L27,0 L27,1 L6,1 L6,11 L25,11 L25,17 L5,17 L6,20 L6,27 L27,27 L27,32 L0,32 Z " fill="#AF9A3D" transform="translate(237,289)"/>
<path d="M0,0 L3,0 L2,8 L-1,17 L3,17 L4,20 L8,21 L8,40 L-11,40 L-11,29 L-7,20 Z M-1,23 L-2,26 L2,27 L2,25 L4,24 Z M6,26 Z " fill="#FDF6C7" transform="translate(322,106)"/>
<path d="M0,0 L5,2 L6,4 L13,4 L13,17 L2,17 L0,21 L-2,24 L-1,31 L3,34 L3,36 L-12,36 L-12,34 L-8,34 L-9,28 L-13,26 L-12,21 L-9,21 L-13,21 L-18,22 L-18,19 L-21,20 L-19,16 L-11,15 L-9,16 L-5,16 L-4,11 L-1,11 L-1,13 L4,14 L5,9 L-4,9 L-6,8 L-5,5 L2,4 Z " fill="#091F8F" transform="translate(301,367)"/>
<path d="M0,0 L13,0 L15,3 L16,9 L16,19 L13,19 L13,21 L-9,21 L-11,19 L-7,16 L-6,8 L-2,7 L-3,4 L1,4 Z " fill="#8B97D8" transform="translate(367,206)"/>
<path d="M0,0 L3,0 L3,5 L5,5 L7,10 L4,11 L4,20 L7,21 L5,16 L9,15 L14,19 L17,20 L17,22 L21,23 L21,19 L25,20 L27,26 L30,27 L31,23 L37,22 L37,25 L39,25 L40,23 L40,27 L42,29 L41,30 L27,30 L0,29 L-1,7 L-2,3 L0,3 Z M8,21 Z M13,23 Z M30,27 Z M31,28 Z " fill="#FEF6B5" transform="translate(330,117)"/>
<path d="M0,0 L3,2 L7,2 L10,6 L10,29 L3,29 L3,39 L-15,39 L-15,38 L1,37 L1,33 L-6,33 L-8,29 L2,29 L1,16 L2,15 L8,15 L8,13 L-27,13 L-29,11 L-29,8 L0,8 Z " fill="#F5DF80" transform="translate(192,293)"/>
<path d="M0,0 L19,0 L19,21 L1,21 L0,20 Z " fill="#B9C0E5" transform="translate(311,206)"/>
<path d="M0,0 L3,0 L3,3 L8,3 L8,1 L15,2 L16,5 L11,10 L9,11 L16,10 L26,14 L25,17 L18,19 L35,20 L34,24 L8,24 L9,21 L-1,20 L-1,15 L13,15 L13,13 L-1,13 L-1,2 Z " fill="#F1E3B3" transform="translate(318,352)"/>
<path d="M0,0 L37,0 L36,44 L32,44 L31,47 L29,47 L29,49 L13,53 L-5,54 L-18,52 L-18,49 L-8,50 L19,50 L19,48 L27,45 L32,42 L33,12 L31,12 L31,10 L33,10 L33,3 L0,3 Z " fill="#051033" transform="translate(260,194)"/>
<path d="M0,0 L20,0 L20,14 L14,14 L14,17 L19,17 L19,18 L4,21 L0,21 Z " fill="#C0C6E8" transform="translate(130,150)"/>
<path d="M0,0 L5,2 L5,4 L14,0 L15,13 L12,13 L13,22 L-4,22 L-5,12 L-5,5 L-3,1 Z " fill="#F9EFCC" transform="translate(250,259)"/>
<path d="M0,0 L2,0 L2,13 L16,13 L24,14 L23,18 L2,16 L2,43 L17,42 L16,45 L3,45 L3,59 L0,59 L0,70 L-1,70 L-1,61 L-20,61 L-20,58 L-1,58 L-1,17 L-6,17 L-6,14 L0,14 Z " fill="#374177" transform="translate(150,150)"/>
<path d="M0,0 L4,0 L4,30 L1,30 L1,32 L4,33 L4,37 L-2,36 L-13,24 L-19,16 L-21,13 L-21,10 L-25,10 L-25,1 L-24,1 L-24,7 L-17,7 L-11,16 L-6,21 L-3,26 L-1,26 Z " fill="#D3BB63" transform="translate(262,335)"/>
<path d="M0,0 L2,1 L2,15 L1,24 L6,25 L6,27 L-5,28 L-4,24 L-10,24 L-10,21 L-13,22 L-17,20 L-15,20 L-16,17 L-15,13 L-16,11 L-13,11 L-13,8 L-19,6 L-19,4 L-11,3 L-7,4 L0,4 Z " fill="#99A3C8" transform="translate(381,163)"/>
<path d="M0,0 L2,0 L2,21 L63,21 L71,22 L71,25 L63,26 L67,31 L71,35 L72,38 L69,38 L69,36 L65,34 L61,31 L61,29 L54,28 L48,26 L21,25 L21,23 L2,23 L1,22 L1,15 L-1,15 L-1,1 Z " fill="#151D26" transform="translate(309,125)"/>
<path d="M0,0 L10,0 L10,26 L-24,26 L-24,29 L-32,29 L-32,26 L-26,25 L-3,24 L-16,19 L-24,15 L-24,12 L-17,13 L-5,18 L0,20 L6,6 L6,3 L3,6 L1,6 Z " fill="#F7EFC9" transform="translate(184,375)"/>
<path d="M0,0 L21,0 L21,18 L11,19 L-20,19 L-21,15 L7,14 L16,13 L16,12 L8,13 L3,14 L2,12 L3,8 L15,5 L16,2 L0,2 Z " fill="#F8E48E" transform="translate(173,357)"/>
<path d="M0,0 L3,0 L2,5 L0,8 L-2,17 L-3,20 L-3,34 L0,48 L7,60 L11,64 L11,66 L15,68 L21,70 L23,70 L23,74 L28,75 L28,77 L22,77 L17,73 L4,66 L-4,48 L-7,39 L-8,26 L-8,15 L-5,7 L-3,7 L-1,1 Z " fill="#494C3A" transform="translate(214,168)"/>
<path d="M0,0 L3,2 L3,6 L5,8 L6,15 L2,14 L0,11 L2,18 L2,24 L-2,22 L-4,18 L-5,26 L-9,27 L-11,30 L-16,31 L-17,30 L-18,22 L-20,18 L-17,17 L-16,11 L-10,11 L-9,16 L-7,12 L-5,10 L-3,9 L-4,5 L-3,3 L-6,2 Z M-2,6 Z " fill="#FAF2D1" transform="translate(397,237)"/>
<path d="M0,0 L16,0 L16,6 L10,6 L9,8 L11,9 L10,12 L7,12 L7,16 L18,17 L18,19 L16,20 L16,24 L-1,24 L-1,7 Z " fill="#C1C7E7" transform="translate(242,376)"/>
<path d="M0,0 L26,0 L26,10 L24,10 L25,13 L2,13 L0,7 Z " fill="#F9F1D5" transform="translate(233,197)"/>
<path d="M0,0 L5,2 L8,5 L11,4 L11,19 L-8,19 L-8,1 L-2,1 L0,2 Z " fill="#8D99D8" transform="translate(138,189)"/>
<path d="M0,0 L3,1 L0,10 L-9,9 L-9,11 L-12,11 L-12,13 L-15,13 L-15,16 L-9,16 L-12,18 L-14,18 L-12,30 L-12,38 L-14,36 L-18,20 L-20,20 L-19,28 L-25,30 L-26,32 L-28,30 L-28,24 L-21,13 L-14,7 L-4,1 Z " fill="#CED3ED" transform="translate(241,152)"/>
<path d="M0,0 L25,0 L27,4 L24,4 L24,7 L28,8 L28,13 L1,13 Z " fill="#545741" transform="translate(202,335)"/>
<path d="M0,0 L7,2 L13,4 L11,5 L11,8 L16,8 L19,16 L21,17 L19,8 L22,11 L24,13 L26,12 L28,13 L28,11 L36,11 L36,21 L22,20 L14,18 L14,14 L10,15 L2,10 L-2,5 L-1,1 Z " fill="#A9B2DF" transform="translate(223,224)"/>
<path d="M0,0 L18,0 L23,1 L23,2 L16,2 L14,1 L14,26 L25,26 L25,8 L28,8 L28,26 L45,26 L46,23 L46,27 L12,28 L12,30 L-15,30 L-15,36 L-16,36 L-16,26 L-14,17 L-13,21 L-14,27 L-5,26 L11,26 L11,1 L0,2 Z " fill="#D9BE5F" transform="translate(248,167)"/>
<path d="M0,0 L3,1 L7,9 L11,19 L11,21 L8,22 L-9,22 L-11,28 L-12,29 L-17,29 L-15,20 L-13,19 L-13,21 L-9,21 L-6,11 L-2,4 Z " fill="#988439" transform="translate(293,343)"/>
<path d="M0,0 L33,0 L33,1 L23,1 L24,19 L28,23 L27,26 L20,24 L17,19 L13,16 L11,19 L8,18 L9,12 L0,4 Z M13,1 L7,2 L9,6 L13,9 L16,3 L16,1 Z M18,5 L16,9 L17,14 L19,15 L19,5 Z " fill="#F5ECCD" transform="translate(130,247)"/>
<path d="M0,0 L2,1 L-7,18 L-15,30 L-24,42 L-36,55 L-50,69 L-66,81 L-82,91 L-94,97 L-92,93 L-74,83 L-59,72 L-48,63 L-30,45 L-20,32 L-9,15 L-2,2 Z " fill="#9C690F" transform="translate(438,345)"/>
<path d="M0,0 L4,2 L6,6 L3,12 L1,12 L1,15 L5,17 L7,18 L7,21 L4,21 L3,23 L-1,21 L-7,15 L-1,24 L2,28 L0,32 L-9,17 L-14,9 L-12,4 L-14,4 L-14,2 L-6,3 L-6,1 L-4,2 L-5,4 L-2,4 L-2,2 L0,2 Z " fill="#909BD7" transform="translate(182,211)"/>
<path d="M0,0 L4,0 L4,7 L1,7 L1,9 L3,9 L3,11 L0,14 L3,14 L4,12 L6,12 L6,9 L10,10 L10,14 L13,14 L12,22 L17,27 L15,27 L15,31 L17,31 L17,34 L7,32 L2,29 L-1,15 L-1,1 Z " fill="#B8BFE6" transform="translate(211,187)"/>
<path d="M0,0 L2,1 L5,13 L6,21 L11,23 L11,25 L9,25 L9,29 L12,29 L11,35 L10,36 L8,46 L8,50 L4,53 L2,57 L0,57 L1,51 L4,42 L5,33 L5,22 L3,22 L2,19 L-5,14 L-13,10 L-13,7 L0,7 L-1,1 Z " fill="#CBA93D" transform="translate(193,140)"/>
<path d="M0,0 L5,2 L5,5 L3,6 L4,10 L3,14 L8,15 L8,18 L14,18 L13,22 L11,22 L11,24 L6,25 L6,27 L15,29 L17,33 L21,34 L21,39 L18,35 L-6,34 L-5,31 L-8,31 L-8,29 L-3,27 L-2,24 L7,22 L11,20 L0,19 L-1,18 L-1,8 L-2,2 Z " fill="#162B7D" transform="translate(363,169)"/>
<path d="M0,0 L9,0 L8,2 L-1,3 L0,6 L-3,8 L-7,8 L-7,10 L-10,10 L-11,13 L-28,13 L-28,1 L-9,1 L-3,3 L-3,1 Z " fill="#5162C0" transform="translate(362,190)"/>
<path d="M0,0 L6,0 L6,20 L-13,21 L-13,10 L-12,8 L-9,8 L-9,6 L-4,8 L1,11 L0,8 L-5,4 L-4,2 L-6,1 Z " fill="#C2C8E9" transform="translate(324,167)"/>
<path d="M0,0 L1,0 L2,5 L2,38 L12,38 L12,41 L9,41 L9,43 L2,43 L2,46 L11,46 L17,48 L16,51 L9,52 L11,53 L11,56 L4,56 L2,55 L2,70 L1,81 L0,81 Z " fill="#604F17" transform="translate(316,284)"/>
<path d="M0,0 L7,0 L8,6 L5,13 L1,16 L2,20 L8,27 L8,30 L1,30 L-7,19 L-11,13 L-10,6 L-14,7 L-13,2 L-11,3 L-11,5 L-9,5 L-6,10 L-3,11 L-3,8 L1,8 L1,3 L-1,2 Z " fill="#BCA951" transform="translate(220,292)"/>
<path d="M0,0 L6,2 L5,4 L4,28 L2,29 L1,46 L-3,43 L-7,42 L-11,38 L-11,35 L-9,35 L-10,33 L-16,34 L-16,28 L1,28 L1,5 L2,2 L0,2 Z " fill="#F3DB77" transform="translate(201,253)"/>
<path d="M0,0 L7,0 L7,1 L1,1 L1,33 L25,32 L22,26 L10,5 L9,1 L12,1 L12,5 L15,6 L25,22 L31,32 L34,33 L34,36 L28,37 L11,37 L0,36 Z " fill="#715D20" transform="translate(152,211)"/>
<path d="M0,0 L3,1 L0,10 L-4,19 L4,18 L4,15 L10,16 L11,11 L14,11 L15,19 L11,18 L9,23 L11,23 L11,26 L-9,26 L-9,15 L-6,12 Z M-5,19 L-4,22 Z " fill="#F2E7C5" transform="translate(139,120)"/>
<path d="M0,0 L15,0 L18,6 L10,7 L9,9 L20,10 L19,15 L21,16 L16,15 L14,14 L14,12 L11,13 L10,17 L5,18 L-1,13 L-2,11 L-7,10 L-3,8 L-1,1 Z " fill="#0C1F83" transform="translate(286,366)"/>
<path d="M0,0 L3,0 L8,9 L7,13 L9,13 L10,16 L14,20 L17,29 L12,27 L5,24 L0,20 L-1,17 L-3,17 L-4,7 L-4,4 L-3,1 Z " fill="#E3CC83" transform="translate(201,204)"/>
<path d="M0,0 L11,1 L11,25 L0,25 Z " fill="#FAF0CF" transform="translate(262,168)"/>
<path d="M0,0 L35,0 L35,2 L27,2 L27,40 L49,40 L49,41 L37,42 L31,44 L24,44 L24,36 L20,35 L20,33 L24,33 L24,3 L6,3 L0,2 Z " fill="#070A1F" transform="translate(210,281)"/>
<path d="M0,0 L18,0 L28,3 L33,5 L33,7 L23,9 L14,11 L10,12 L5,10 L0,8 Z " fill="#95A0DA" transform="translate(153,150)"/>
<path d="M0,0 L17,0 L21,1 L22,6 L24,6 L22,12 L20,13 L19,17 L24,17 L24,26 L8,26 L8,25 L16,25 L15,21 L18,20 L18,18 L7,17 L7,13 L10,11 L9,7 L12,6 L16,7 L16,1 L0,1 Z " fill="#6373CA" transform="translate(242,375)"/>
<path d="M0,0 L16,0 L18,1 L19,5 L19,14 L0,14 Z " fill="#FCFCFE" transform="translate(311,230)"/>
<path d="M0,0 L19,0 L20,3 L24,4 L24,11 L21,13 L8,13 L4,7 L4,5 L2,7 L4,10 L4,13 L0,14 Z " fill="#8794D6" transform="translate(153,195)"/>
<path d="M0,0 L4,2 L10,6 L7,9 L2,7 L-1,7 L-2,11 L-2,28 L-11,28 L-11,5 L0,3 Z " fill="#F3DD8E" transform="translate(248,253)"/>
<path d="M0,0 L22,0 L22,15 L11,14 L2,7 L0,3 Z " fill="#FBF8F1" transform="translate(237,213)"/>
<path d="M0,0 L9,0 L18,6 L18,9 L13,8 L9,5 L2,3 L2,8 L-5,8 L3,14 L3,17 L7,19 L7,23 L3,22 L2,22 L5,24 L5,27 L0,26 L0,24 L-4,22 L-8,17 L-7,13 L-9,13 L-8,11 L-7,10 L-9,4 L-3,6 L-1,2 Z M-5,15 Z M-4,16 Z M-1,18 Z " fill="#F8EECD" transform="translate(326,404)"/>
<path d="M0,0 L22,0 L23,13 L14,13 L14,7 L-17,7 L-16,4 L0,4 Z M7,1 L5,4 L8,4 Z " fill="#F9E27C" transform="translate(180,335)"/>
<path d="M0,0 L1,0 L1,12 L18,11 L19,9 L25,8 L25,11 L48,12 L51,17 L52,24 L49,24 L47,16 L35,16 L35,19 L32,20 L32,23 L28,23 L25,18 L22,16 L17,15 L1,14 L0,13 Z " fill="#061A77" transform="translate(333,191)"/>
<path d="M0,0 L2,0 L2,56 L-3,54 L-3,51 L1,51 L0,36 L-3,36 L-2,32 L1,31 L0,24 L-6,26 L-10,27 L-9,21 L-8,19 L-10,19 L-10,14 L-5,14 L-2,5 Z M0,12 Z M-4,19 L0,20 Z " fill="#F1E5C2" transform="translate(125,150)"/>
<path d="M0,0 L2,0 L2,4 L6,4 L6,6 L8,7 L8,10 L11,10 L12,14 L16,16 L2,16 L-7,14 L-11,10 L-13,8 L-11,8 L-11,6 L-14,5 L-13,2 L-6,4 L-4,1 Z M-8,9 Z M-7,10 Z " fill="#F1E3B7" transform="translate(169,131)"/>
<path d="M0,0 L20,0 L20,21 L14,21 L14,18 L10,16 L11,8 L6,7 L1,2 Z " fill="#F0DA76" transform="translate(287,150)"/>
<path d="M0,0 L0,3 L-2,3 L-1,7 L7,20 L9,25 L11,25 L16,33 L19,40 L22,46 L21,47 L-1,47 L-1,44 L16,44 L8,30 L3,21 L-6,7 L-8,6 L-7,3 Z " fill="#262E50" transform="translate(187,200)"/>
<path d="M0,0 L10,0 L10,22 L7,25 L5,29 L3,25 L0,19 Z " fill="#FDFBF6" transform="translate(297,248)"/>
<path d="M0,0 L2,1 L2,5 L5,5 L8,19 L-4,19 L-4,15 L-1,13 L0,10 L-3,11 L-22,11 L-22,5 L-2,5 L0,6 Z " fill="#3547A8" transform="translate(267,287)"/>
<path d="M0,0 L12,0 L23,1 L23,3 L28,4 L30,5 L30,8 L16,12 L13,11 L19,8 L21,8 L21,6 L11,10 L9,10 L9,6 L5,9 L0,7 L-2,5 L-6,9 L-5,5 L-4,1 Z " fill="#BEC4E6" transform="translate(253,149)"/>
<path d="M0,0 L6,0 L6,3 L1,3 L3,10 L3,26 L-2,28 L-9,36 L-16,40 L-11,42 L-11,44 L-23,45 L-27,43 L-24,43 L-23,39 L-11,33 L-7,31 L-6,27 L-15,27 L-11,26 L-11,24 L-4,24 L-4,22 L-1,22 L-1,13 L0,9 Z " fill="#43548F" transform="translate(384,203)"/>
<path d="M0,0 L1,2 L3,2 L3,20 L-14,20 L-14,14 Z " fill="#FCFCFD" transform="translate(219,380)"/>
<path d="M0,0 L7,0 L12,1 L10,6 L14,7 L16,8 L16,6 L24,7 L23,10 L10,10 L10,8 L-8,9 L-15,10 L-20,12 L-28,12 L-22,4 L-20,4 L-20,7 L-17,5 L-14,5 L-14,8 L-8,6 Z " fill="#EACF71" transform="translate(258,137)"/>
<path d="M0,0 L2,0 L0,12 L0,22 L3,32 L9,41 L9,44 L6,43 L8,47 L7,51 L5,50 L0,36 L-1,32 L-4,32 L-4,21 L-5,15 L-9,15 L-9,13 L-7,13 L-8,4 L-6,4 L-5,7 Z " fill="#0B1B5E" transform="translate(233,181)"/>
<path d="M0,0 L4,1 L10,3 L10,28 L1,28 L-2,24 L0,19 L3,12 L2,5 Z " fill="#0B1E7D" transform="translate(224,286)"/>
<path d="M0,0 L9,0 L9,7 L4,7 L4,13 L-3,14 L-4,15 L-11,15 L-13,15 L-15,18 L-14,13 L-10,6 L-3,1 Z " fill="#F7F0D9" transform="translate(250,168)"/>
<path d="M0,0 L7,1 L7,3 L-11,4 L-26,8 L-36,14 L-38,18 L-43,26 L-44,24 L-47,24 L-46,16 L-40,11 L-38,6 L-36,6 L-36,4 L-21,4 L-18,2 Z " fill="#D5B443" transform="translate(261,144)"/>
<path d="M0,0 L12,0 L12,2 L16,3 L16,13 L14,16 L12,24 L9,23 L9,20 L11,20 L12,14 L14,10 L4,11 L5,16 L8,17 L7,22 L5,22 L4,18 L0,17 L0,9 L8,9 L8,7 L0,7 Z " fill="#5061C0" transform="translate(270,325)"/>
<path d="M0,0 L1,0 L1,9 L-2,18 L-5,23 L-14,29 L-16,26 L-16,19 L-13,19 L-16,15 L-20,16 L-19,13 L-15,11 L-11,11 L-5,11 L-4,7 L-1,6 Z " fill="#7E8BD1" transform="translate(197,173)"/>
<path d="M0,0 L2,0 L3,5 L6,5 L6,9 L9,9 L14,20 L16,28 L11,28 L11,24 L1,21 L-3,24 L-8,16 L-8,14 L2,16 L5,17 L5,14 L3,14 L3,9 L-1,5 Z " fill="#9AA5DC" transform="translate(223,204)"/>
<path d="M0,0 L27,0 L27,1 L6,1 L6,3 L1,3 L1,25 L5,25 L5,20 L6,20 L6,27 L27,27 L27,32 L0,32 Z " fill="#786933" transform="translate(237,289)"/>
<path d="M0,0 L1,0 L1,29 L-3,30 L-29,30 L-30,28 L-21,27 L-14,24 L-13,16 L-11,16 L-11,9 L-10,9 L-8,21 L-6,22 L-5,25 L-2,19 L0,19 Z " fill="#F1E5C2" transform="translate(307,251)"/>
<path d="M0,0 L1,2 L-1,3 L-5,13 L-13,29 L-16,38 L-11,37 L-8,31 L12,30 L13,34 L9,33 L-6,33 L-9,41 L-21,41 L-20,37 L-12,16 L-8,11 L-4,2 Z " fill="#0D1320" transform="translate(292,334)"/>
<path d="M0,0 L12,0 L14,0 L18,1 L15,1 L16,27 L18,25 L18,34 L12,35 L-18,35 L-18,34 L11,33 L11,1 L1,1 L1,13 L0,20 L-2,20 L-2,9 L0,9 Z " fill="#907727" transform="translate(296,247)"/>
<path d="M0,0 L17,0 L17,7 L15,7 L15,9 L17,9 L17,13 L1,13 Z " fill="#DDE0F2" transform="translate(276,197)"/>
<path d="M0,0 L24,0 L23,4 L12,11 L7,12 L6,7 L5,10 L0,11 L1,4 L2,2 L-5,4 L-4,1 Z " fill="#CFD4EE" transform="translate(354,230)"/>
<path d="M0,0 L2,1 L24,1 L23,5 L20,6 L20,10 L26,10 L26,13 L4,13 L4,17 L15,17 L18,16 L18,19 L16,20 L0,20 L-1,10 L19,10 L19,4 L0,4 Z " fill="#04144E" transform="translate(243,296)"/>
<path d="M0,0 L13,0 L15,3 L16,10 L9,9 L7,7 L6,9 L4,9 L2,6 L-1,9 L-2,13 L0,14 L2,19 L5,21 L-9,21 L-11,19 L-7,16 L-6,8 L-2,7 L-3,4 L1,4 Z " fill="#7F8CD3" transform="translate(367,206)"/>
<path d="M0,0 L10,0 L11,2 L11,51 L10,53 L-1,53 L-1,62 L-3,62 L-4,50 L-3,45 L-5,44 L-1,44 L-1,3 Z M0,3 L0,50 L10,50 L10,3 Z " fill="#645A26" transform="translate(297,194)"/>
<path d="M0,0 L5,0 L8,5 L15,21 L15,24 L17,24 L18,32 L21,35 L21,38 L17,38 L13,30 L13,28 L11,28 L6,14 L6,12 L4,12 L0,3 Z " fill="#E4CF8E" transform="translate(270,284)"/>
<path d="M0,0 L3,2 L7,2 L10,6 L9,9 L0,10 L0,12 L-7,13 L-27,13 L-29,11 L-29,8 L0,8 Z " fill="#FBEDB4" transform="translate(192,293)"/>
<path d="M0,0 L3,0 L4,2 L8,3 L8,5 L17,8 L17,10 L19,10 L19,12 L14,11 L7,9 L-11,8 L-12,11 L-17,15 L-19,15 L-21,19 L-25,21 L-24,12 L-19,8 L-17,10 L-12,8 L-12,5 L0,5 Z " fill="#091B78" transform="translate(259,159)"/>
<path d="M0,0 L8,3 L7,29 L-3,29 L-3,25 L-1,24 L-1,21 L4,22 L1,13 L3,10 L5,10 L5,6 L-1,11 L-2,10 L-2,5 L-4,5 L-4,2 Z " fill="#F6EBC9" transform="translate(195,252)"/>
<path d="M0,0 Z M-2,1 L0,2 L-3,5 L-5,8 L-7,16 L-9,20 L-11,21 L-13,27 L-14,25 L-18,25 L-17,21 L-19,21 L-18,19 L-16,20 L-15,14 L-18,14 L-18,10 L-13,7 L-13,4 L-6,4 L-5,2 Z " fill="#DBBB51" transform="translate(220,155)"/>
<path d="M0,0 L13,0 L13,1 L1,1 L2,18 L7,20 L8,19 L8,14 L12,16 L15,20 L16,18 L20,20 L21,23 L19,23 L19,25 L13,27 L0,27 Z " fill="#EDE0BE" transform="translate(152,166)"/>
<path d="M0,0 L12,0 L13,3 L2,2 L2,38 L-20,38 L-20,35 L-1,35 L-1,11 Z " fill="#121826" transform="translate(150,209)"/>
<path d="M0,0 L2,0 L6,7 L19,7 L21,6 L23,2 L24,6 L28,8 L29,11 L27,11 L27,13 L25,13 L25,15 L22,15 L21,14 L13,13 L13,15 L15,15 L14,19 L12,19 L9,16 L7,10 L0,9 L2,8 L-1,1 Z " fill="#3F53B9" transform="translate(155,200)"/>
<path d="M0,0 L9,1 L13,2 L18,7 L21,9 L21,12 L2,12 L0,7 Z " fill="#C8CDEB" transform="translate(357,152)"/>
<path d="M0,0 L9,0 L9,21 L3,20 L0,21 Z " fill="#FEF5C1" transform="translate(298,206)"/>
<path d="M0,0 L2,0 L3,10 L3,23 L22,23 L23,26 L8,28 L14,35 L14,38 L9,38 L3,31 L2,24 L2,13 L0,13 Z " fill="#DEC36A" transform="translate(314,258)"/>
<path d="M0,0 L25,0 L25,7 L0,7 Z " fill="#3041A0" transform="translate(205,325)"/>
<path d="M0,0 L4,2 L8,7 L10,3 L17,3 L22,5 L22,7 L24,7 L25,13 L20,12 L20,14 L16,13 L16,11 L12,12 L5,13 L3,7 L0,3 Z " fill="#F7EECD" transform="translate(299,422)"/>
<path d="M0,0 L2,0 L3,7 L2,16 L7,17 L7,19 L-4,20 L-3,16 L-9,16 L-9,13 L-12,14 L-16,12 L-14,12 L-14,10 L-11,10 L-11,8 L-6,7 L-5,4 L0,5 Z M-4,6 Z " fill="#6777BF" transform="translate(380,171)"/>
<path d="M0,0 L3,0 L4,3 L7,4 L7,19 L3,19 L3,14 L1,14 L2,21 L-2,21 L-5,6 L-5,2 L-1,2 Z " fill="#FEF9D6" transform="translate(378,119)"/>
<path d="M0,0 L5,1 L7,4 L9,0 L11,0 L11,10 L13,17 L3,17 L-1,8 Z " fill="#E2C66B" transform="translate(265,264)"/>
<path d="M0,0 L25,0 L25,5 L6,5 L6,12 L0,12 Z " fill="#E0CE81" transform="translate(197,352)"/>
<path d="M0,0 L28,0 L29,3 L39,8 L44,12 L44,15 L46,15 L47,17 L47,26 L45,26 L41,15 L34,9 L24,5 L10,3 L10,1 L0,1 Z " fill="#4E4B3A" transform="translate(152,147)"/>
<path d="M0,0 L1,0 L1,8 L8,9 L11,11 L15,10 L24,8 L36,6 L36,9 L31,10 L31,12 L35,12 L35,14 L39,14 L39,17 L35,18 L33,16 L34,14 L25,14 L25,12 L14,14 L0,13 Z " fill="#7885CF" transform="translate(152,150)"/>
<path d="M0,0 L4,0 L5,34 L3,35 L3,25 L1,26 L0,47 L-4,46 L-2,43 L-1,18 L-1,1 Z " fill="#FBF2C3" transform="translate(308,100)"/>
<path d="M0,0 L1,0 L0,26 L-3,27 L-5,26 L-6,22 L-7,23 L-15,22 L-14,16 L-8,15 L-8,14 L-13,14 L-17,16 L-14,12 L-3,12 L-1,13 L-1,4 Z " fill="#7E7739" transform="translate(317,373)"/>
<path d="M0,0 L4,0 L1,10 L-7,26 L-9,32 L-11,32 L-11,30 L-13,30 L-12,23 L-7,12 L-5,12 L-4,7 L-1,1 Z " fill="#D4BF79" transform="translate(304,284)"/>
<path d="M0,0 L6,3 L6,15 L-7,15 L-10,14 L-9,11 L-7,10 L-4,4 Z " fill="#FDF6D9" transform="translate(287,178)"/>
<path d="M0,0 L1,2 L26,2 L25,6 L15,8 L13,8 L13,11 L6,11 L5,8 L-3,6 L-1,1 Z M21,3 L21,5 L24,4 Z M17,3 L13,5 L18,5 Z " fill="#FDF5D4" transform="translate(163,357)"/>
<path d="M0,0 L4,1 L4,6 L2,6 L2,12 L4,12 L4,19 L-1,15 L-2,21 L-5,24 L-6,21 L0,9 L-4,9 L-4,13 L-9,14 L-9,10 L-8,9 L-9,9 L-9,1 L-4,1 L0,2 Z M-6,3 Z " fill="#F8EDCB" transform="translate(326,249)"/>
<path d="M0,0 L7,1 L7,2 L18,3 L44,3 L44,0 L62,1 L62,3 L58,4 L43,5 L22,5 L22,18 L19,18 L18,5 L0,4 Z " fill="#132590" transform="translate(311,226)"/>
<path d="M0,0 L5,0 L13,7 L17,6 L17,2 L21,3 L25,10 L15,12 L11,8 L9,7 L8,9 L4,7 L6,11 L8,13 L2,15 L-2,16 L-2,12 L0,12 L1,8 L-1,7 Z " fill="#F9F1D2" transform="translate(255,124)"/>
<path d="M0,0 L42,0 L42,3 L32,4 L1,4 Z " fill="#877730" transform="translate(152,372)"/>
<path d="M0,0 L17,0 L18,5 L22,7 L22,10 L24,10 L25,15 L29,11 L31,11 L31,15 L28,18 L29,25 L27,25 L26,22 L24,21 L20,14 L17,12 L14,7 L14,5 L12,5 L11,3 L0,2 Z " fill="#E7D18D" transform="translate(169,247)"/>
<path d="M0,0 L30,0 L32,5 L14,5 L14,3 L11,5 L0,5 L-1,2 Z " fill="#1D33A9" transform="translate(247,309)"/>
<path d="M0,0 L2,1 L1,6 L5,5 L5,7 L8,7 L7,12 L4,17 L12,17 L11,21 L9,22 L9,25 L4,27 L1,17 L1,14 L-1,13 L-2,5 Z " fill="#7B88D1" transform="translate(299,315)"/>
<path d="M0,0 L14,0 L16,1 L16,3 L9,3 L11,8 L17,8 L17,10 L14,10 L14,13 L10,12 L8,7 L6,7 L5,5 L4,8 L7,8 L6,14 L0,14 Z " fill="#2238A5" transform="translate(203,290)"/>
<path d="M0,0 L1,0 L2,10 L5,34 L4,39 L1,38 L0,36 L-4,35 L-4,26 L-1,26 L-1,14 Z " fill="#FCF3CE" transform="translate(198,408)"/>
<path d="M0,0 L8,0 L8,13 L5,14 L-3,14 L-3,1 Z " fill="#F9EFC7" transform="translate(265,214)"/>
<path d="M0,0 L1,0 L1,20 L-2,20 L-4,24 L-5,21 L-7,20 L-9,24 L-10,22 L-7,12 L-6,5 L-1,2 Z " fill="#D2D6EF" transform="translate(312,293)"/>
<path d="M0,0 L3,2 L19,2 L17,4 L11,4 L11,6 L13,7 L9,8 L11,12 L14,14 L14,17 L9,15 L4,12 L4,14 L1,14 L0,16 Z " fill="#9EA8DC" transform="translate(311,161)"/>
<path d="M0,0 L30,0 L30,47 L29,47 L29,3 L10,4 L12,8 L1,3 Z " fill="#7A6D2B" transform="translate(278,147)"/>
<path d="M0,0 L17,0 L15,2 L9,4 L2,5 L2,19 L11,28 L11,30 L6,29 L2,25 L0,29 L-3,28 L-3,20 L-1,20 Z " fill="#F7EBC6" transform="translate(333,248)"/>
<path d="M0,0 L4,2 L1,3 L2,5 L6,7 L16,8 L16,12 L8,12 L8,14 L3,15 L0,10 L1,18 L-2,17 L-4,9 L-3,5 L-4,1 Z " fill="#4052B0" transform="translate(243,223)"/>
<path d="M0,0 L4,1 L3,5 L-1,12 L-3,15 L-1,15 L-2,19 L-5,19 L-6,17 L-12,14 L-11,11 L-13,11 L-13,9 L-18,8 L-18,7 L-13,6 L-6,6 L-6,8 L-4,8 L-4,6 L1,6 Z " fill="#8F97BF" transform="translate(289,158)"/>
<path d="M0,0 L4,2 L8,2 L11,4 L11,6 L17,4 L21,4 L22,9 L18,10 L20,14 L15,13 L15,15 L9,13 L11,8 L7,9 L0,4 L-1,1 Z M2,7 L4,8 Z " fill="#F4DF95" transform="translate(259,130)"/>
<path d="M0,0 L4,1 L15,13 L19,18 L23,21 L23,23 L1,23 L1,20 L15,19 L6,9 L4,4 L0,5 Z " fill="#0C1534" transform="translate(241,352)"/>
<path d="M0,0 L4,1 L10,6 L15,12 L23,19 L26,21 L26,26 L22,25 L14,18 L7,10 L2,6 L0,3 Z " fill="#F5ECCF" transform="translate(100,218)"/>
<path d="M0,0 L3,0 L3,12 L-1,12 L-1,9 L-3,9 L-3,12 L-21,12 L-21,7 L-17,6 L-7,6 L0,8 Z " fill="#3445B2" transform="translate(227,352)"/>
<path d="M0,0 L5,2 L11,6 L15,10 L28,18 L31,19 L32,21 L46,28 L60,33 L69,37 L76,39 L72,40 L54,34 L35,25 L23,18 L9,8 L0,1 Z " fill="#FDF787" transform="translate(124,415)"/>
<path d="M0,0 L18,0 L18,17 L16,13 L17,3 L11,3 L9,7 L4,12 L0,16 Z " fill="#F5E7B8" transform="translate(276,247)"/>
<path d="M0,0 L6,0 L7,2 L7,13 L-4,14 L-4,1 Z " fill="#919CD8" transform="translate(266,231)"/>
<path d="M0,0 L4,2 L5,7 L5,20 L4,28 L-1,28 L-3,21 L-2,14 L0,14 L0,7 L3,7 L3,4 L0,4 Z " fill="#D1B962" transform="translate(234,345)"/>
<path d="M0,0 L5,1 L21,9 L21,10 L-4,10 L-2,4 Z " fill="#FBF7EC" transform="translate(157,234)"/>
<path d="M0,0 L7,0 L10,10 L10,20 L8,18 L4,2 L2,2 L3,10 L-3,12 L-4,14 L-6,12 L-6,6 L-3,1 Z " fill="#AAB2E0" transform="translate(219,170)"/>
<path d="M0,0 L4,0 L4,25 L-4,25 L-4,18 L-1,18 L-1,8 Z " fill="#BCC3E7" transform="translate(234,375)"/>
<path d="M0,0 L10,0 L10,3 L9,4 L3,4 L7,12 L7,15 L1,15 L1,21 L8,22 L8,25 L1,28 L-4,29 L-6,27 L-1,27 Z " fill="#CAA937" transform="translate(317,372)"/>
<path d="M0,0 L6,0 L15,11 L16,13 L0,13 Z " fill="#0D1B8D" transform="translate(241,359)"/>
<path d="M0,0 L1,2 L-1,5 L-3,5 L-3,7 L-19,11 L-37,12 L-50,10 L-50,7 L-40,8 L-13,8 L-13,6 L-5,3 Z " fill="#0C1D44" transform="translate(292,236)"/>
<path d="M0,0 L4,0 L3,25 L12,25 L12,26 L-41,26 L-41,25 L0,25 Z " fill="#19278C" transform="translate(238,375)"/>
<path d="M0,0 L6,5 L6,10 L-1,15 L-10,16 L-10,9 L-6,10 L-6,12 L-3,12 L-4,9 L0,9 L0,7 L-4,7 L-4,3 L-6,3 L-6,1 Z " fill="#C8CDEB" transform="translate(287,226)"/>
<path d="M0,0 L10,0 L10,9 L1,9 L2,45 L8,46 L8,47 L0,47 Z " fill="#E5D274" transform="translate(297,197)"/>
<path d="M0,0 L1,0 L1,12 L4,12 L4,26 L1,26 L1,37 L0,37 L0,28 L-19,28 L-19,25 L0,25 Z " fill="#051063" transform="translate(149,183)"/>
<path d="M0,0 L33,0 L33,1 L23,1 L24,19 L28,23 L27,26 L20,24 L19,13 L19,1 L0,1 Z " fill="#E0C97F" transform="translate(130,247)"/>
<path d="M0,0 L3,0 L2,7 L6,3 L12,7 L16,5 L16,9 L8,8 L8,10 L10,11 L8,13 L0,13 L-2,12 L-2,10 L-4,10 L-3,3 L-4,1 Z " fill="#929ED9" transform="translate(246,150)"/>
<path d="M0,0 L1,0 L1,12 L-7,12 L-7,15 L-22,16 L-33,16 L-33,11 L0,11 Z " fill="#DBBE60" transform="translate(126,135)"/>
<path d="M0,0 L7,0 L7,3 L11,1 L11,13 L1,13 L0,12 Z " fill="#D1D4EC" transform="translate(262,197)"/>
<path d="M0,0 L6,1 L11,0 L17,4 L17,8 L-4,8 L-4,4 L0,3 Z " fill="#E4CC82" transform="translate(213,236)"/>
<path d="M0,0 L2,0 L2,24 L-6,24 L-6,10 L-4,14 L-1,14 L-2,6 Z " fill="#C5CBEB" transform="translate(228,376)"/>
<path d="M0,0 L3,1 L9,17 L9,19 L11,19 L12,15 L15,16 L16,21 L19,23 L15,24 L7,23 L2,12 L2,9 L0,9 L-1,1 Z " fill="#FEF5AA" transform="translate(365,124)"/>
<path d="M0,0 L4,2 L5,3 L5,12 L6,13 L7,8 L10,8 L10,14 L7,15 L6,19 L1,18 L-2,9 L-1,1 Z " fill="#F4EAC6" transform="translate(197,137)"/>
<path d="M0,0 L24,1 L21,4 L8,4 L8,6 L2,5 L-17,4 L-17,1 Z " fill="#051466" transform="translate(351,187)"/>
<path d="M0,0 L25,0 L25,5 L0,5 Z " fill="#C1C7E9" transform="translate(205,343)"/>
<path d="M0,0 L7,1 L8,2 L22,2 L29,1 L30,6 L28,7 L28,5 L18,6 L18,19 L15,19 L15,5 L5,5 L0,2 Z " fill="#071C83" transform="translate(244,226)"/>
<path d="M0,0 L9,3 L11,8 L8,9 L3,9 L4,12 L0,13 L-5,12 L-6,10 L-6,4 L-1,5 Z " fill="#EEDDA3" transform="translate(204,151)"/>
<path d="M0,0 L3,0 L3,4 L21,4 L21,1 L23,1 L23,4 L27,4 L27,12 L22,12 L22,7 L0,7 Z " fill="#21316B" transform="translate(203,360)"/>
<path d="M0,0 L3,0 L3,2 L9,1 L12,2 L14,8 L9,10 L7,16 L5,15 L6,10 L4,10 L3,8 L-1,9 L-5,7 L-5,5 L-1,5 L0,2 L-5,2 L-5,1 Z " fill="#394BAC" transform="translate(174,162)"/>
<path d="M0,0 L19,0 L19,2 L-4,4 L-17,9 L-26,15 L-28,15 L-26,11 L-17,5 L-9,2 Z " fill="#132445" transform="translate(250,147)"/>
<path d="M0,0 L6,0 L6,39 L5,41 L3,41 L2,38 L5,38 L4,34 L2,33 L2,31 L5,31 L5,1 L1,1 L1,27 L-3,27 L-3,25 L-1,25 L-2,14 L-2,2 Z " fill="#6A6226" transform="translate(261,334)"/>
<path d="M0,0 L27,0 L25,6 L24,8 L22,8 L22,14 L18,22 L16,24 L12,24 L13,22 L16,18 L23,2 L0,2 Z " fill="#011124" transform="translate(276,282)"/>
<path d="M0,0 L1,3 L-2,14 L0,11 L3,12 L4,13 L5,11 L8,11 L8,20 L-1,20 L-1,18 L-5,19 L-5,10 Z " fill="#C7CCEB" transform="translate(305,302)"/>
<path d="M0,0 L2,1 L1,2 L0,24 L-5,24 L-5,1 Z " fill="#F9EFC6" transform="translate(242,257)"/>
<path d="M0,0 L3,0 L3,4 L6,5 L16,21 L22,31 L19,32 L16,27 L12,24 L6,13 L0,3 Z " fill="#4A4730" transform="translate(161,212)"/>
<path d="M0,0 L16,0 L16,8 L9,8 L1,6 L-2,3 L-2,1 Z " fill="#D3D8EF" transform="translate(314,151)"/>
<path d="M0,0 L16,0 L16,15 L12,15 L13,1 L8,1 L7,7 L4,13 L1,12 L2,1 Z " fill="#FDF5D5" transform="translate(178,404)"/>
<path d="M0,0 L13,0 L22,1 L21,6 L23,7 L18,6 L16,5 L16,3 L13,4 L12,8 L7,9 L1,4 Z " fill="#4557BE" transform="translate(284,375)"/>
<path d="M0,0 L8,0 L8,39 L-9,39 L-8,36 L7,36 L7,4 L0,4 Z " fill="#9F8F5D" transform="translate(119,208)"/>
<path d="M0,0 L2,0 L5,4 L7,6 L7,9 L13,20 L13,22 L9,20 L8,16 L6,17 L0,17 Z " fill="#FAE280" transform="translate(386,213)"/>
<path d="M0,0 L3,1 L-1,6 L0,13 L4,16 L4,18 L-11,18 L-11,16 L-7,16 L-8,10 L-12,7 L-4,6 L-4,3 L-1,3 Z " fill="#051747" transform="translate(300,385)"/>
<path d="M0,0 L19,0 L19,6 L0,6 Z " fill="#8C97D6" transform="translate(311,197)"/>
<path d="M0,0 L4,0 L4,19 L7,19 L7,24 L-1,24 Z " fill="#D5DAF0" transform="translate(198,376)"/>
<path d="M0,0 L6,0 L6,20 L4,19 L5,15 L1,14 L0,8 L-5,4 L-4,2 L-6,1 Z " fill="#AAB2DF" transform="translate(324,167)"/>
<path d="M0,0 L48,0 L46,1 L45,5 L40,5 L40,1 L38,1 L39,5 L36,5 L34,7 L32,6 L32,4 L29,4 L29,1 L23,2 L0,1 Z " fill="#DCCE9B" transform="translate(244,404)"/>
<path d="M0,0 L1,0 L1,17 L-1,17 L-2,19 L-2,17 L-5,16 L-8,9 L-7,5 L-4,3 L-5,1 Z " fill="#B2B9E3" transform="translate(312,335)"/>
<path d="M0,0 L10,0 L16,2 L15,5 L8,6 L10,7 L10,10 L3,10 L1,9 L0,12 Z " fill="#F0E3B6" transform="translate(317,330)"/>
<path d="M0,0 L1,0 L1,12 L18,11 L19,9 L25,8 L25,11 L29,12 L28,16 L23,17 L17,15 L1,14 L0,13 Z " fill="#061774" transform="translate(333,191)"/>
<path d="M0,0 L8,0 L9,13 L0,13 Z " fill="#DFCA73" transform="translate(194,335)"/>
<path d="M0,0 L3,0 L3,5 L5,5 L7,10 L4,11 L3,29 L0,29 L-1,7 L-2,3 L0,3 Z " fill="#FDF3AB" transform="translate(330,117)"/>
<path d="M0,0 L4,0 L2,6 L-1,13 L-2,20 L4,20 L4,23 L-5,23 L-5,5 L0,4 Z " fill="#EEDB9F" transform="translate(322,258)"/>
<path d="M0,0 L4,0 L4,2 L2,2 L2,4 L-4,4 L-4,6 L-2,6 L-2,10 L2,10 L2,12 L-1,13 L-1,15 L-4,15 L-6,13 L-7,13 L-8,19 L-6,20 L-9,20 L-9,6 L-8,2 Z " fill="#8E99D6" transform="translate(285,223)"/>
<path d="M0,0 L3,1 L9,11 L10,16 L4,14 L-4,10 L-3,2 Z " fill="#F9F6EB" transform="translate(164,222)"/>
<path d="M0,0 L27,0 L28,4 L1,4 Z " fill="#F6EAB9" transform="translate(197,368)"/>
<path d="M0,0 L2,0 L2,13 L16,13 L24,14 L23,18 L15,17 L0,17 L-4,15 L0,14 Z " fill="#091D7E" transform="translate(150,150)"/>
<path d="M0,0 L6,2 L9,5 L9,7 L13,9 L19,11 L21,11 L21,15 L26,16 L26,18 L20,18 L15,14 L2,7 Z " fill="#8D7D42" transform="translate(216,227)"/>
<path d="M0,0 L15,0 L13,5 L2,11 L0,13 Z " fill="#ADB5E1" transform="translate(333,231)"/>
<path d="M0,0 L33,0 L34,2 L34,10 L33,10 L33,3 L0,3 Z " fill="#0C144D" transform="translate(260,194)"/>
<path d="M0,0 L2,0 L0,12 L-3,13 L-2,19 L-2,30 L-4,32 L-4,21 L-5,15 L-9,15 L-9,13 L-7,13 L-8,4 L-6,4 L-5,7 Z " fill="#192FA6" transform="translate(233,181)"/>
<path d="M0,0 L35,0 L35,2 L27,2 L27,8 L24,9 L24,3 L6,3 L0,2 Z " fill="#2C3022" transform="translate(210,281)"/>
<path d="M0,0 L5,0 L1,4 L-12,13 L-14,13 L-14,3 Z " fill="#C8CDEC" transform="translate(144,168)"/>
<path d="M0,0 L22,0 L22,3 L19,3 L19,5 L22,5 L22,8 L13,9 L9,11 L6,11 L6,7 L11,6 L11,1 L0,1 Z M15,1 L15,3 L19,2 Z " fill="#FAF2D3" transform="translate(244,405)"/>
<path d="M0,0 L4,2 L4,26 L3,28 L0,28 Z " fill="#223046" transform="translate(194,372)"/>
<path d="M0,0 L4,0 L4,28 L0,25 Z " fill="#F4E9C4" transform="translate(262,335)"/>
<path d="M0,0 L13,0 L13,8 L5,25 L2,26 L3,20 L9,8 L7,4 L9,1 L2,2 Z " fill="#C3C9EA" transform="translate(136,211)"/>
<path d="M0,0 L2,0 L3,5 L5,5 L4,11 L-6,11 L-7,5 L-9,4 L-9,2 Z " fill="#CFD4EE" transform="translate(167,197)"/>
<path d="M0,0 L2,1 L1,10 L-2,14 L-6,24 L-10,24 L-9,18 L-1,1 Z " fill="#E2CF8B" transform="translate(290,340)"/>
<path d="M0,0 L3,3 L4,9 L2,9 L2,11 L7,12 L7,16 L-5,16 L-3,6 Z " fill="#DFCC84" transform="translate(293,348)"/>
<path d="M0,0 L5,1 L1,2 L2,8 L2,11 L7,10 L11,13 L11,16 L8,16 L7,18 L3,16 L-5,9 L-3,4 Z " fill="#C5CBEB" transform="translate(178,216)"/>
<path d="M0,0 L4,2 L7,3 L8,1 L14,1 L10,6 L15,9 L15,11 L4,10 L0,12 Z " fill="#919CD9" transform="translate(334,191)"/>
<path d="M0,0 L1,0 L1,7 L-5,7 L-5,10 L0,10 L0,11 L-15,14 L-19,14 L-19,7 L0,6 Z " fill="#A2ACDF" transform="translate(149,157)"/>
<path d="M0,0 L23,0 L24,2 L24,17 L23,17 L23,4 L9,4 L8,1 L1,1 L3,5 L3,8 L1,8 L-2,3 L-2,1 Z " fill="#D7BA62" transform="translate(211,247)"/>
<path d="M0,0 L1,4 L0,10 L26,10 L26,13 L-1,13 L-1,19 L-2,19 L-2,9 Z " fill="#685820" transform="translate(234,184)"/>
<path d="M0,0 L9,1 L9,4 L1,5 L5,10 L9,14 L10,17 L7,17 L7,15 L3,13 L-1,10 L-1,6 L-7,4 L-7,1 Z " fill="#96945E" transform="translate(371,146)"/>
<path d="M0,0 L6,0 L2,6 L-10,20 L-12,22 L-14,20 L-6,10 L-6,7 L-6,4 L-1,1 Z " fill="#F7E6AA" transform="translate(362,248)"/>
<path d="M0,0 L7,0 L8,6 L5,13 L4,14 L-1,14 L-2,9 L0,8 L1,3 L-1,2 Z " fill="#E3CB5C" transform="translate(220,292)"/>
<path d="M0,0 L3,1 L-1,3 L0,12 L-1,14 L2,16 L2,19 L0,19 L-1,21 L-8,10 L-8,5 L-2,2 L0,2 Z " fill="#DDC372" transform="translate(194,199)"/>
<path d="M0,0 L5,2 L5,5 L3,6 L4,10 L3,14 L8,15 L8,18 L13,18 L13,19 L0,19 L-1,18 L-1,8 L-2,2 Z " fill="#4255BE" transform="translate(363,169)"/>
<path d="M0,0 L3,0 L3,6 L1,6 L1,10 L-20,10 L-20,5 L-17,4 L-17,8 L-10,8 L-14,4 L-14,2 L-9,4 L-4,8 L-4,4 L-1,4 Z " fill="#949FDB" transform="translate(354,153)"/>
<path d="M0,0 L5,2 L6,4 L13,4 L13,9 L9,9 L8,12 L5,11 L5,9 L-4,9 L-6,8 L-5,5 L2,4 Z " fill="#101E61" transform="translate(301,367)"/>
<path d="M0,0 L24,0 L31,1 L31,4 L37,6 L37,8 L30,7 L24,5 L17,4 L13,2 L0,1 Z " fill="#3B4139" transform="translate(333,146)"/>
<path d="M0,0 L3,1 L7,9 L8,10 L8,16 L2,16 L2,14 L4,14 L1,6 L-2,11 L-3,16 L-6,16 L-5,9 L-2,4 Z " fill="#232F40" transform="translate(293,343)"/>
<path d="M0,0 L2,1 L4,11 L0,13 L-9,12 L-13,10 L-13,7 L0,7 L-1,1 Z " fill="#D3B351" transform="translate(193,140)"/>
<path d="M0,0 L3,0 L3,31 L0,31 L-1,25 L-1,3 Z " fill="#625623" transform="translate(294,163)"/>
<path d="M0,0 L10,0 L16,4 L16,7 L11,6 L9,7 L3,6 L6,8 L10,10 L0,9 Z " fill="#FCFCFD" transform="translate(130,150)"/>
<path d="M0,0 L4,1 L1,9 L3,10 L5,15 L8,17 L-6,17 L-8,15 L-4,12 L-3,4 L1,3 Z " fill="#4E5FB8" transform="translate(364,210)"/>
<path d="M0,0 L7,1 L7,3 L10,4 L9,7 L11,7 L12,2 L13,5 L19,3 L19,8 L0,8 Z " fill="#C4CAEA" transform="translate(130,200)"/>
<path d="M0,0 L6,2 L5,4 L4,28 L1,31 L-2,31 L-1,28 L1,28 L1,5 L2,2 L0,2 Z " fill="#DABB50" transform="translate(201,253)"/>
<path d="M0,0 L14,0 L10,2 L7,5 L4,5 L3,19 L0,19 Z " fill="#9CA7DD" transform="translate(202,376)"/>
<path d="M0,0 L5,0 L4,22 L0,22 Z " fill="#EAD27A" transform="translate(238,292)"/>
<path d="M0,0 L2,1 L-3,13 L-6,13 L-10,3 L-10,1 Z " fill="#DFE2F3" transform="translate(294,291)"/>
<path d="M0,0 L1,0 L1,50 L0,59 L-2,59 L-3,47 L-2,42 L-4,41 L0,41 Z " fill="#5C5120" transform="translate(296,197)"/>
<path d="M0,0 L3,0 L3,30 L0,30 Z " fill="#E2C44C" transform="translate(194,404)"/>
<path d="M0,0 L10,0 L10,1 L1,3 L0,6 L-5,10 L-7,10 L-9,14 L-13,16 L-12,7 L-7,3 L-5,5 L0,3 Z " fill="#162A9A" transform="translate(247,164)"/>
<path d="M0,0 L4,1 L10,3 L10,15 L3,15 L3,8 L0,2 Z " fill="#0B1D73" transform="translate(224,286)"/>
<path d="M0,0 L4,0 L4,7 L1,7 L1,9 L3,9 L3,11 L0,14 L4,16 L7,19 L3,24 L1,24 L-1,15 L-1,1 Z " fill="#C6CCEA" transform="translate(211,187)"/>
<path d="M0,0 L3,0 L4,23 L2,31 L0,31 Z " fill="#322B18" transform="translate(127,229)"/>
<path d="M0,0 L2,1 L2,6 L24,5 L24,3 L26,3 L26,9 L4,9 L3,11 L0,3 Z " fill="#E9CB62" transform="translate(233,204)"/>
<path d="M0,0 L16,0 L16,6 L10,6 L7,7 L1,5 Z " fill="#B5BDE5" transform="translate(242,376)"/>
<path d="M0,0 L14,0 L16,6 L0,6 Z " fill="#A1ABDF" transform="translate(206,325)"/>
<path d="M0,0 L2,0 L6,7 L19,8 L20,11 L12,13 L11,16 L9,16 L7,10 L0,9 L2,8 L-1,1 Z " fill="#2137A7" transform="translate(155,200)"/>
<path d="M0,0 L9,0 L9,2 L28,2 L28,4 L3,4 L3,8 L0,8 Z " fill="#8B7B34" transform="translate(194,348)"/>
<path d="M0,0 L1,0 L1,18 L0,29 L-3,29 L-3,8 L-1,8 Z " fill="#CFB358" transform="translate(130,252)"/>
<path d="M0,0 L2,3 L7,4 L9,5 L9,14 L4,15 L4,13 L2,13 L1,8 L-3,4 L-1,4 Z " fill="#9FA9DA" transform="translate(374,211)"/>
<path d="M0,0 L2,0 L6,17 L12,28 L12,30 L7,28 L2,17 L0,5 Z " fill="#2B3A52" transform="translate(208,199)"/>
<path d="M0,0 L1,0 L1,56 L-4,54 L-4,51 L0,51 L-1,36 L-4,36 L-3,32 L0,31 Z " fill="#B09F70" transform="translate(126,150)"/>
<path d="M0,0 L26,0 L25,4 L-1,4 Z " fill="#EFDB98" transform="translate(327,372)"/>
<path d="M0,0 L6,0 L6,3 L1,3 L3,10 L3,26 L-2,27 L-1,13 L0,9 Z " fill="#9B904D" transform="translate(384,203)"/>
<path d="M0,0 L4,0 L3,4 L1,10 L-1,10 L-1,13 L1,13 L-1,21 L-2,21 L-3,13 L-5,12 L-3,12 L-3,7 L-5,6 L-6,1 Z " fill="#939ED8" transform="translate(280,335)"/>
<path d="M0,0 L2,2 L5,11 L5,14 L7,14 L12,24 L12,26 L7,26 L5,20 L0,10 Z " fill="#1E2128" transform="translate(276,298)"/>
<path d="M0,0 L2,0 L7,11 L9,19 L4,19 L4,15 L0,14 Z " fill="#6070C9" transform="translate(230,213)"/>
<path d="M0,0 L8,0 L8,1 L2,1 L6,13 L2,12 L0,9 L-9,6 L-9,4 L-4,3 L-4,1 Z " fill="#E0D26E" transform="translate(378,190)"/>
<path d="M0,0 L2,0 L6,13 L3,14 L2,12 L3,20 L1,20 L1,17 L-1,17 L-3,13 L-8,14 L-8,12 L-5,12 L-5,10 L0,8 Z " fill="#7381CF" transform="translate(221,172)"/>
<path d="M0,0 L5,1 L5,6 L-7,6 L-7,9 L-12,12 L-14,11 L-15,7 L-13,2 L-10,2 L-10,4 L0,4 Z " fill="#4659C0" transform="translate(254,158)"/>
<path d="M0,0 L2,1 L2,19 L19,19 L20,16 L20,20 L-4,20 L-1,19 L-1,1 Z " fill="#BCA242" transform="translate(274,174)"/>
<path d="M0,0 L32,0 L32,1 L10,3 L9,21 L8,21 L8,3 L0,3 Z " fill="#403819" transform="translate(119,147)"/>
<path d="M0,0 L8,2 L12,5 L12,7 L17,7 L17,8 L0,8 L0,5 L-2,5 Z " fill="#E3C97A" transform="translate(150,138)"/>
<path d="M0,0 L4,1 L8,10 L7,12 L6,11 L4,15 L2,10 L0,9 L-1,11 L-3,6 L-2,2 L0,2 Z " fill="#B9A045" transform="translate(293,334)"/>
<path d="M0,0 L5,0 L5,2 L2,2 L4,11 L8,10 L5,13 L0,14 L-3,9 L-6,8 L-5,5 L-3,5 L-3,2 Z " fill="#2D41AF" transform="translate(179,190)"/>
<path d="M0,0 L3,0 L4,6 L4,16 L2,16 L1,19 L0,17 L-8,17 L-8,15 L0,14 Z " fill="#05197D" transform="translate(330,150)"/>
<path d="M0,0 L20,0 L20,4 L0,4 Z " fill="#F2E09D" transform="translate(238,317)"/>
<path d="M0,0 L4,0 L1,10 L-2,16 L-6,18 L-5,9 L-1,1 Z " fill="#EFE4C2" transform="translate(304,284)"/>
<path d="M0,0 L16,0 L18,2 L8,3 L7,6 L4,6 L4,8 L0,9 Z " fill="#A6AFDF" transform="translate(311,230)"/>
<path d="M0,0 L4,2 L6,6 L3,12 L1,12 L0,16 L-2,16 L-3,7 L0,6 L-3,4 L-2,2 L0,2 Z " fill="#8F9BD8" transform="translate(182,211)"/>
<path d="M0,0 L2,0 L2,6 L-1,6 L-1,9 L5,9 L2,11 L-10,12 L-7,6 Z " fill="#D0D4ED" transform="translate(227,159)"/>
<path d="M0,0 L5,0 L5,3 L-1,3 L-2,9 L6,9 L9,9 L8,13 L2,14 L-3,12 L-4,10 L-4,3 Z " fill="#1D2D5F" transform="translate(304,386)"/>
<path d="M0,0 L11,1 L11,3 L-21,3 L-21,17 L-23,13 L-23,3 L-22,2 Z " fill="#01072D" transform="translate(151,147)"/>
<path d="M0,0 L1,0 L3,9 L12,10 L20,12 L20,15 L6,15 L1,10 L-1,7 Z " fill="#6F682A" transform="translate(299,389)"/>
<path d="M0,0 L4,3 L4,5 L1,5 L1,7 L4,8 L4,12 L-2,11 L-7,5 L-4,4 L-3,1 Z " fill="#AC984E" transform="translate(262,360)"/>
<path d="M0,0 L8,4 L11,7 L9,9 L3,7 L4,10 L0,12 L-2,12 L-2,2 L0,2 Z " fill="#ECDBA5" transform="translate(210,229)"/>
<path d="M0,0 L7,0 L11,6 L6,4 L10,9 L12,11 L2,11 L3,6 L0,7 Z " fill="#C7CDEB" transform="translate(334,151)"/>
<path d="M0,0 L5,1 L9,3 L7,7 L-3,14 L-5,15 L-3,11 L0,3 Z M2,4 Z " fill="#F7EECD" transform="translate(244,128)"/>
<path d="M0,0 L4,1 L-6,11 L-10,13 L-10,5 L-7,5 L-6,2 Z " fill="#F9FAFD" transform="translate(216,376)"/>
<path d="M0,0 L19,0 L19,4 L0,4 Z " fill="#F9E8A3" transform="translate(205,335)"/>
<path d="M0,0 L19,0 L18,4 L1,5 Z " fill="#CDD0E6" transform="translate(280,284)"/>
<path d="M0,0 L13,0 L12,3 L6,2 L5,10 L0,11 L1,4 L2,2 L-5,4 L-4,1 Z " fill="#8693D6" transform="translate(354,230)"/>
<path d="M0,0 L3,1 L3,8 L2,10 L5,9 L4,12 L0,13 L-3,17 L-4,6 L-2,2 Z " fill="#596AC3" transform="translate(232,170)"/>
<path d="M0,0 L1,3 L3,3 L4,11 L7,14 L7,17 L3,17 L-1,9 L-1,7 L-3,7 L-4,1 Z " fill="#CEB561" transform="translate(284,305)"/>
<path d="M0,0 L15,0 L15,5 L0,5 Z " fill="#BDC4E8" transform="translate(246,292)"/>
<path d="M0,0 L2,0 L2,21 L1,21 L0,14 L-7,11 L-5,10 L-3,5 Z " fill="#EFD87D" transform="translate(292,167)"/>
<path d="M0,0 L3,1 L2,3 L-3,4 L-3,6 L1,6 L1,8 L5,8 L5,11 L1,12 L-1,10 L0,8 L-9,8 L-10,3 Z " fill="#8C98D7" transform="translate(186,156)"/>
<path d="M0,0 L7,0 L12,6 L12,12 L7,11 L5,9 L3,4 Z " fill="#E2D194" transform="translate(246,352)"/>
<path d="M0,0 L1,0 L1,9 L23,9 L23,10 L11,11 L5,13 L-2,13 L-2,3 Z " fill="#181914" transform="translate(236,312)"/>
<path d="M0,0 L4,1 L5,3 L4,5 L1,6 L-1,11 L-5,11 L-4,9 L-7,8 L-8,11 L-11,10 L-9,9 L-9,7 L-6,5 L-6,3 L-1,3 Z M-1,3 Z M-3,8 Z " fill="#F6EDCB" transform="translate(236,132)"/>
<path d="M0,0 L4,1 L4,4 L0,3 L-15,3 L-18,11 L-26,11 L-27,8 L-25,6 L-25,8 L-20,7 L-17,1 Z " fill="#19222A" transform="translate(301,364)"/>
<path d="M0,0 L24,0 L23,3 L-1,3 Z " fill="#695D25" transform="translate(171,332)"/>
<path d="M0,0 L11,0 L12,1 L12,6 L-1,6 Z " fill="#C7CDEB" transform="translate(246,326)"/>
<path d="M0,0 L9,0 L16,2 L18,5 L2,5 L0,4 Z " fill="#F8E79D" transform="translate(206,284)"/>
<path d="M0,0 L4,3 L8,3 L10,1 L12,3 L10,3 L10,7 L12,7 L12,10 L2,8 L-2,6 L-1,2 Z " fill="#DEE1F3" transform="translate(216,211)"/>
<path d="M0,0 Z M-2,1 L0,2 L-3,5 L-5,8 L-6,12 L-8,12 L-8,14 L-11,14 L-13,10 L-14,5 L-13,4 L-6,4 L-5,2 Z " fill="#E1C566" transform="translate(220,155)"/>
<path d="M0,0 L8,1 L13,3 L13,5 L3,7 L-1,7 L-3,1 Z " fill="#C1C7E9" transform="translate(173,152)"/>
<path d="M0,0 L14,0 L17,5 L3,5 L3,3 L0,2 Z " fill="#7D8AD0" transform="translate(287,367)"/>
<path d="M0,0 L24,0 L24,3 L1,3 Z " fill="#DCC458" transform="translate(170,349)"/>
<path d="M0,0 L2,0 L2,38 L1,38 L0,11 L-4,13 L-3,7 Z " fill="#A5ABCC" transform="translate(312,284)"/>
<path d="M0,0 L2,0 L2,11 L-3,12 L-6,18 L-7,15 L-6,13 L-11,15 L-15,25 L-17,21 L-16,19 L-14,19 L-12,13 L-11,11 L0,10 Z " fill="#594C18" transform="translate(314,271)"/>
<path d="M0,0 L1,0 L1,29 L-3,30 L-6,29 L-3,20 L0,19 Z " fill="#DDC16A" transform="translate(307,251)"/>
<path d="M0,0 L7,2 L8,3 L8,9 L2,10 L-2,5 L-1,1 Z " fill="#CDD2ED" transform="translate(223,224)"/>
<path d="M0,0 L2,0 L3,7 L-2,7 L-2,9 L-4,9 L-4,7 L-15,8 L-14,5 L-3,2 L-2,6 L0,6 L-1,1 Z " fill="#C3C9EA" transform="translate(287,157)"/>
<path d="M0,0 L5,0 L5,8 L-2,7 L-12,7 L-19,8 L-19,5 L0,5 Z " fill="#10247C" transform="translate(222,352)"/>
<path d="M0,0 L24,0 L23,2 L16,4 L-1,3 Z " fill="#00052C" transform="translate(242,332)"/>
<path d="M0,0 L13,0 L19,1 L19,4 L0,4 Z " fill="#818CCF" transform="translate(311,190)"/>
<path d="M0,0 L2,1 L8,0 L8,4 L6,4 L8,9 L4,11 L0,10 L0,8 L3,8 L0,4 L-4,5 L-3,2 Z " fill="#6474CA" transform="translate(181,184)"/>
<path d="M0,0 L2,0 L2,21 L21,21 L21,22 L1,22 L1,15 L-1,15 L-1,1 Z " fill="#90843B" transform="translate(309,125)"/>
<path d="M0,0 L7,1 L8,4 L3,9 L0,10 L0,6 L-2,6 L-2,4 L-6,4 L-6,2 L0,2 Z " fill="#F5E9C0" transform="translate(326,353)"/>
<path d="M0,0 L15,0 L15,7 L2,7 L6,6 L7,1 L0,1 Z M11,2 Z " fill="#FCEFB6" transform="translate(179,342)"/>
<path d="M0,0 L2,0 L4,9 L7,9 L7,11 L4,11 L2,15 L1,12 L-1,11 L-3,15 L-4,13 Z " fill="#F9F9FC" transform="translate(306,302)"/>
<path d="M0,0 L5,1 L5,5 L-3,5 L-3,7 L-8,8 L-10,3 L-8,3 L-8,1 Z " fill="#5263C4" transform="translate(254,230)"/>
<path d="M0,0 L28,0 L28,3 L19,4 L10,3 L10,1 L0,1 Z " fill="#353015" transform="translate(152,147)"/>
<path d="M0,0 L17,0 L17,4 L0,4 Z " fill="#F8ECBD" transform="translate(205,352)"/>
<path d="M0,0 L14,0 L16,1 L16,3 L2,2 L3,10 L6,12 L6,14 L0,14 Z " fill="#162749" transform="translate(203,290)"/>
<path d="M0,0 L4,1 L12,10 L8,11 L0,8 Z " fill="#D0D4EE" transform="translate(153,150)"/>
<path d="M0,0 L15,0 L14,3 L25,3 L25,4 L1,4 Z " fill="#F7E9A9" transform="translate(152,372)"/>
<path d="M0,0 L3,4 L7,16 L9,21 L3,21 L0,14 L4,13 L0,3 Z " fill="#AE984B" transform="translate(304,351)"/>
<path d="M0,0 L16,0 L17,4 L0,4 Z " fill="#DFE2F4" transform="translate(206,360)"/>
<path d="M0,0 L10,0 L8,1 L8,5 L13,5 L15,4 L15,7 L0,7 Z " fill="#CBD1ED" transform="translate(270,325)"/>
<path d="M0,0 L1,0 L1,6 L7,6 L10,11 L1,12 L1,24 L0,24 Z " fill="#847634" transform="translate(202,298)"/>
<path d="M0,0 L13,0 L13,3 L10,4 L0,4 L1,10 L-2,6 L-3,1 Z " fill="#5365C2" transform="translate(284,288)"/>
<path d="M0,0 L3,0 L4,2 L4,11 L-15,11 L-14,8 L-12,9 L-6,9 L2,5 L3,3 L-1,3 Z " fill="#BFC4E6" transform="translate(326,233)"/>
<path d="M0,0 L16,0 L16,3 L9,5 L2,5 L0,4 Z " fill="#4759BF" transform="translate(277,210)"/>
<path d="M0,0 L5,2 L1,7 L-4,12 L-8,14 L-8,9 Z " fill="#FAFAFD" transform="translate(320,209)"/>
<path d="M0,0 L2,0 L2,13 L-4,12 L-5,7 Z " fill="#FCEEAA" transform="translate(305,150)"/>
<path d="M0,0 L1,0 L1,5 L16,5 L16,0 L23,0 L25,1 L25,6 L0,6 Z " fill="#5867BE" transform="translate(245,292)"/>
<path d="M0,0 L4,0 L4,16 L1,14 L-1,8 L-3,4 Z " fill="#FAF4E0" transform="translate(269,253)"/>
<path d="M0,0 L20,0 L20,2 L2,3 L-23,3 L-23,2 L-1,1 Z " fill="#725C18" transform="translate(209,245)"/>
<path d="M0,0 L5,1 L7,2 L7,9 L0,9 L-3,2 Z " fill="#B2BAE4" transform="translate(252,236)"/>
<path d="M0,0 L6,1 L10,3 L10,0 L14,2 L14,4 L18,5 L18,10 L15,6 L-1,5 Z " fill="#72799E" transform="translate(366,198)"/>
<path d="M0,0 L4,0 L6,6 L6,12 L2,13 L0,8 L0,4 L-2,4 L-2,1 Z " fill="#5869C6" transform="translate(224,196)"/>
<path d="M0,0 L5,1 L9,4 L9,7 L-10,7 L-10,6 L-2,6 Z " fill="#B0B8E2" transform="translate(369,157)"/>
<path d="M0,0 L2,1 L1,4 L4,4 L4,7 L6,8 L4,8 L5,13 L4,17 L2,17 L1,20 L0,20 Z " fill="#FCFCFE" transform="translate(242,377)"/>
<path d="M0,0 L12,0 L12,5 L0,5 L-2,1 Z " fill="#ACB3E0" transform="translate(246,335)"/>
<path d="M0,0 L1,4 L3,7 L8,8 L8,10 L12,10 L12,15 L6,15 L-2,5 L-1,1 Z " fill="#182862" transform="translate(222,306)"/>
<path d="M0,0 L17,0 L15,2 L9,4 L2,5 L1,17 L0,17 Z " fill="#F7E5A5" transform="translate(333,248)"/>
<path d="M0,0 L6,1 L16,6 L20,7 L21,12 L14,9 L0,2 Z " fill="#EAD7A1" transform="translate(156,231)"/>
<path d="M0,0 L3,1 L-7,7 L-9,11 L-14,19 L-15,17 L-17,17 L-16,12 L-14,12 L-12,8 L-9,5 L-7,5 L-7,3 Z " fill="#8D792E" transform="translate(232,151)"/>
<path d="M0,0 L2,0 L3,3 L3,10 L1,11 L0,32 L-4,31 L-2,28 L-1,1 Z " fill="#E8D371" transform="translate(308,115)"/>
<path d="M0,0 L9,0 L9,12 L4,7 L0,2 Z " fill="#A5ADDC" transform="translate(249,342)"/>
<path d="M0,0 L1,0 L1,12 L-5,11 L-5,8 L-7,7 L-1,7 L-1,5 L-9,4 L-9,1 Z " fill="#F3DB75" transform="translate(201,301)"/>
<path d="M0,0 L6,1 L8,0 L8,8 L-2,8 L-2,4 L0,3 Z " fill="#F8EAB2" transform="translate(194,273)"/>
<path d="M0,0 L1,2 L-4,7 L-10,11 L-12,8 L-12,3 L-5,2 Z " fill="#C0C6E7" transform="translate(193,191)"/>
<path d="M0,0 L4,0 L4,2 L1,3 L-1,10 L-1,15 L-4,14 L-7,5 L-7,3 L-1,2 Z " fill="#FCF098" transform="translate(387,188)"/>
<path d="M0,0 L3,2 L19,2 L17,4 L11,4 L11,6 L2,7 L2,9 L0,9 Z " fill="#4B5DBE" transform="translate(311,161)"/>
<path d="M0,0 L7,0 L6,18 L3,18 L3,1 Z " fill="#102394" transform="translate(227,375)"/>
<path d="M0,0 L12,0 L12,7 L-2,7 L-2,6 L7,5 L7,4 L0,3 Z " fill="#D2C178" transform="translate(182,365)"/>
<path d="M0,0 L5,1 L11,8 L11,11 L6,11 L0,4 Z " fill="#F5EDCF" transform="translate(317,285)"/>
<path d="M0,0 L12,0 L12,15 L11,15 L11,5 L8,6 L1,6 L1,3 L3,2 Z " fill="#EFE1B5" transform="translate(115,247)"/>
<path d="M0,0 L7,0 L5,1 L5,3 L7,3 L7,7 L-4,7 L-3,1 L0,2 Z " fill="#C1C7E9" transform="translate(286,203)"/>
<path d="M0,0 L4,1 L13,11 L15,16 L17,20 L11,15 L4,6 L4,4 L0,5 Z " fill="#061558" transform="translate(241,352)"/>
<path d="M0,0 L6,1 L8,2 L6,8 L4,10 L0,10 Z " fill="#717FCD" transform="translate(270,354)"/>
<path d="M0,0 L5,0 L6,4 L9,5 L9,9 L2,9 L0,5 Z " fill="#7381CF" transform="translate(206,312)"/>
<path d="M0,0 L2,1 L2,3 L4,3 L7,8 L10,9 L10,6 L13,7 L11,7 L12,11 L15,13 L12,16 L10,14 L10,11 L2,10 L3,4 L-1,5 Z " fill="#8A887B" transform="translate(207,294)"/>
<path d="M0,0 L8,1 L11,6 L12,10 L9,11 L3,6 Z " fill="#F1DA75" transform="translate(209,304)"/>
<path d="M0,0 L7,1 L7,3 L-11,4 L-22,6 L-18,2 Z " fill="#796826" transform="translate(261,144)"/>
<path d="M0,0 L4,0 L4,3 L7,3 L7,10 L0,10 Z " fill="#5666A8" transform="translate(195,322)"/>
<path d="M0,0 L3,0 L3,20 L0,20 Z " fill="#D2B141" transform="translate(330,248)"/>
<path d="M0,0 L5,1 L3,2 L3,5 L8,5 L8,8 L4,7 L3,12 L-3,9 L-4,7 L0,6 Z " fill="#B1B9E4" transform="translate(231,227)"/>
<path d="M0,0 L4,1 L1,2 L0,4 L6,1 L10,3 L7,5 L5,5 L5,8 L7,9 L-1,8 L-3,6 L-2,1 Z " fill="#797D60" transform="translate(283,385)"/>
<path d="M0,0 L2,0 L2,6 L6,6 L6,14 L1,14 L-1,7 Z " fill="#8E824F" transform="translate(232,359)"/>
<path d="M0,0 L5,0 L4,10 L8,10 L7,12 L2,11 L0,14 L-1,13 L-1,7 L0,5 Z " fill="#605320" transform="translate(233,335)"/>
<path d="M0,0 L1,0 L3,12 L5,13 L4,16 L-2,18 L-2,7 L0,7 Z " fill="#EAD8A1" transform="translate(296,260)"/>
<path d="M0,0 L18,0 L18,17 L16,13 L17,3 L1,2 L0,5 Z " fill="#E3CE82" transform="translate(276,247)"/>
<path d="M0,0 L2,0 L3,12 L13,13 L13,16 L4,16 L1,15 L0,13 Z " fill="#25386D" transform="translate(260,197)"/>
<path d="M0,0 L10,0 L10,6 L0,6 Z " fill="#FDF5CD" transform="translate(297,197)"/>
<path d="M0,0 L10,0 L10,6 L0,6 Z " fill="#F6E48C" transform="translate(297,188)"/>
<path d="M0,0 L16,0 L16,4 L-3,3 L-3,1 Z " fill="#0E208D" transform="translate(314,187)"/>
<path d="M0,0 L1,0 L1,30 L7,28 L5,35 L2,36 L0,34 Z " fill="#0D1669" transform="translate(269,334)"/>
<path d="M0,0 L3,2 L6,1 L6,8 L3,8 L3,6 L-5,6 L-7,1 L-3,2 L-2,1 Z " fill="#6272CA" transform="translate(143,192)"/>
<path d="M0,0 L6,0 L6,39 L5,41 L3,41 L2,38 L5,38 L4,34 L2,33 L2,31 L5,31 L5,1 L0,1 Z " fill="#53481F" transform="translate(261,334)"/>
<path d="M0,0 L12,0 L13,4 L12,5 L3,5 L0,4 Z " fill="#8590D0" transform="translate(269,317)"/>
<path d="M0,0 L3,0 L3,8 L16,7 L19,6 L19,9 L17,10 L1,10 Z " fill="#06143E" transform="translate(242,306)"/>
<path d="M0,0 L15,0 L14,3 L4,5 L0,6 Z " fill="#EBD067" transform="translate(185,281)"/>
<path d="M0,0 L7,0 L8,3 L8,13 L4,13 L3,2 L0,3 Z " fill="#152B9D" transform="translate(269,197)"/>
<path d="M0,0 L8,0 L8,6 L7,7 L-1,6 Z " fill="#8B97D7" transform="translate(303,389)"/>
<path d="M0,0 L11,0 L11,5 L0,5 L-1,2 Z " fill="#919BD3" transform="translate(247,309)"/>
<path d="M0,0 L1,2 L-1,10 L-4,13 L-6,20 L-10,19 L-8,14 L-1,1 Z " fill="#071122" transform="translate(301,305)"/>
<path d="M0,0 L1,3 L-1,10 L-4,19 L-7,22 L-11,22 L-10,20 L-7,16 Z " fill="#152875" transform="translate(299,284)"/>
<path d="M0,0 L19,0 L19,3 L0,3 Z " fill="#1D2662" transform="translate(130,244)"/>
<path d="M0,0 L19,0 L19,3 L0,3 Z " fill="#4F61C3" transform="translate(130,208)"/>
<path d="M0,0 L19,0 L19,3 L0,3 Z " fill="#011999" transform="translate(311,203)"/>
<path d="M0,0 L19,0 L19,3 L0,3 Z " fill="#0B1B78" transform="translate(311,194)"/>
<path d="M0,0 L2,0 L2,6 L-2,7 L-20,7 L-20,6 L-8,6 L-6,2 Z " fill="#0B1E84" transform="translate(174,189)"/>
<path d="M0,0 L2,1 L1,22 L-2,20 L-2,3 Z " fill="#13213F" transform="translate(332,166)"/>
<path d="M0,0 L4,2 L6,4 L6,9 L0,8 L0,5 L-6,3 L-6,1 Z " fill="#717FCE" transform="translate(368,166)"/>
<path d="M0,0 L3,1 L2,8 L-2,9 L-3,12 L-5,12 L-6,10 L-6,4 L-1,5 Z " fill="#E7D084" transform="translate(204,151)"/>
<path d="M0,0 L2,0 L2,24 L0,20 L-2,6 Z " fill="#E7EAF6" transform="translate(228,376)"/>
<path d="M0,0 L8,0 L7,4 L5,5 L5,8 L0,10 L-1,4 Z " fill="#7F8DD3" transform="translate(303,332)"/>
<path d="M0,0 L5,1 L14,8 L14,11 L9,10 L9,8 L4,6 L0,3 Z " fill="#FFFADC" transform="translate(404,179)"/>
<path d="M0,0 L8,0 L8,15 L4,15 L5,1 L0,1 Z " fill="#FAEFC7" transform="translate(186,404)"/>
<path d="M0,0 L19,0 L18,3 L0,3 Z " fill="#A9953D" transform="translate(160,401)"/>
<path d="M0,0 L5,5 L-10,5 L-10,1 Z " fill="#B3BBE5" transform="translate(252,367)"/>
<path d="M0,0 L3,0 L2,23 L0,26 Z " fill="#F7EFD4" transform="translate(311,251)"/>
<path d="M0,0 L9,0 L9,16 L6,16 L6,1 L0,1 Z " fill="#AC9034" transform="translate(267,248)"/>
<path d="M0,0 L7,0 L7,1 L1,1 L1,33 L6,33 L5,36 L0,36 Z " fill="#9F884B" transform="translate(152,211)"/>
<path d="M0,0 L2,3 L1,11 L8,12 L8,15 L1,18 L-4,19 L-6,17 L-1,17 Z " fill="#E0C45D" transform="translate(317,382)"/>
<path d="M0,0 L4,0 L4,8 L-3,8 L-5,3 L-1,2 Z " fill="#253AAB" transform="translate(310,376)"/>
<path d="M0,0 L2,4 L1,5 L1,11 L5,12 L5,15 L2,15 L2,22 L-1,23 L-1,16 L-2,12 L-1,2 Z " fill="#2C2D1B" transform="translate(232,337)"/>
<path d="M0,0 L10,0 L10,1 L4,1 L5,6 L8,7 L7,12 L5,12 L4,8 L0,7 Z " fill="#7F8CD3" transform="translate(270,335)"/>
<path d="M0,0 L4,0 L4,2 L2,2 L2,4 L-4,4 L-4,8 L-7,8 L-7,10 L-9,10 L-8,2 Z " fill="#6776CA" transform="translate(285,223)"/>
<path d="M0,0 L1,3 L3,3 L2,18 L-1,19 L-1,1 Z " fill="#010A32" transform="translate(331,185)"/>
<path d="M0,0 L3,1 L6,9 L1,10 L1,12 L-8,12 L-8,10 L1,9 Z " fill="#9E852E" transform="translate(262,272)"/>
<path d="M0,0 L1,0 L1,6 L-16,6 L-15,3 L0,3 Z " fill="#A4872B" transform="translate(126,241)"/>
<path d="M0,0 L3,0 L3,6 L-4,5 L-4,3 L-11,5 L-11,3 L-13,3 L-13,1 L-4,1 Z " fill="#919DDA" transform="translate(290,213)"/>
<path d="M0,0 L6,0 L7,4 L4,5 L4,8 L0,8 L-3,2 Z " fill="#2237A5" transform="translate(361,206)"/>
<path d="M0,0 L2,0 L4,10 L8,22 L5,21 L5,18 L3,18 L2,12 L-3,3 L-3,1 Z " fill="#BB9B35" transform="translate(205,199)"/>
<path d="M0,0 L12,0 L8,5 L4,6 L2,4 L-2,8 L-1,4 Z " fill="#E0E3F4" transform="translate(249,150)"/>
<path d="M0,0 L3,0 L3,4 L5,4 L5,0 L7,1 L6,8 L6,14 L3,14 L1,10 L2,2 L0,2 Z " fill="#7381CE" transform="translate(221,376)"/>
<path d="M0,0 L2,2 L2,12 L1,19 L0,19 L0,6 L-10,7 L-11,4 L0,4 Z " fill="#1C338A" transform="translate(258,336)"/>
<path d="M0,0 L2,0 L1,5 L-2,12 L-3,8 L-8,18 L-9,15 L-3,2 Z " fill="#303130" transform="translate(304,298)"/>
<path d="M0,0 L6,0 L6,3 L-2,4 L-3,8 L-8,9 L-8,3 L0,3 Z " fill="#E4C557" transform="translate(319,401)"/>
<path d="M0,0 L17,1 L17,3 L15,4 L0,4 Z " fill="#F7E8B5" transform="translate(246,284)"/>
<path d="M0,0 L3,0 L3,17 L0,17 Z " fill="#857227" transform="translate(234,264)"/>
<path d="M0,0 L4,1 L9,3 L9,5 L-3,6 L-7,4 L-4,4 L-4,1 Z " fill="#70662F" transform="translate(364,242)"/>
<path d="M0,0 L5,5 L6,8 L27,9 L26,6 L29,6 L31,10 L5,10 L0,2 Z " fill="#C2A13B" transform="translate(203,235)"/>
<path d="M0,0 L3,3 L5,5 L7,4 L9,6 L9,8 L10,12 L7,12 L5,7 L2,7 L0,3 Z M9,3 L17,3 L17,6 L9,5 Z " fill="#919CD9" transform="translate(242,232)"/>
<path d="M0,0 L2,0 L1,13 L-3,23 L-5,23 L-4,17 L-1,8 Z " fill="#333D30" transform="translate(198,174)"/>
<path d="M0,0 L2,0 L4,9 L0,8 L-5,4 L-4,2 L-6,1 Z " fill="#F9FAFC" transform="translate(324,167)"/>
<path d="M0,0 L14,0 L12,1 L11,5 L6,5 L6,1 L4,1 L5,5 L0,4 L0,1 Z " fill="#E3C65B" transform="translate(278,404)"/>
<path d="M0,0 L3,0 L3,2 L6,2 L6,12 L3,13 L1,12 L1,2 Z " fill="#A08A2E" transform="translate(311,387)"/>
<path d="M0,0 L5,0 L6,3 L6,12 L2,22 L0,23 L1,16 L3,13 L3,3 L0,2 Z " fill="#081B80" transform="translate(282,325)"/>
<path d="M0,0 L6,0 L6,1 L1,1 L3,9 L10,10 L10,6 L14,7 L16,10 L11,11 L0,11 Z " fill="#14288E" transform="translate(205,311)"/>
<path d="M0,0 L2,0 L0,5 L-2,8 L-10,8 L-9,5 Z " fill="#FCFCFD" transform="translate(346,235)"/>
<path d="M0,0 L6,2 L9,6 L7,7 L5,6 L7,10 L6,14 L4,13 Z " fill="#0D249B" transform="translate(234,218)"/>
<path d="M0,0 L2,1 L2,3 L0,4 L-1,10 L-4,11 L-6,10 L-6,4 Z " fill="#FEFDFC" transform="translate(159,219)"/>
<path d="M0,0 L2,0 L2,3 L6,1 L6,13 L4,11 L2,7 L-3,6 Z " fill="#A6AFDF" transform="translate(267,197)"/>
<path d="M0,0 L16,0 L16,3 L0,3 Z " fill="#0A1038" transform="translate(260,194)"/>
<path d="M0,0 L2,1 L2,8 L4,8 L2,18 L2,22 L-2,24 L1,6 L-1,5 Z " fill="#867022" transform="translate(199,168)"/>
<path d="M0,0 L3,1 L3,17 L0,17 Z " fill="#B2A64F" transform="translate(330,129)"/>
<path d="M0,0 L6,0 L6,2 L22,1 L22,3 L-14,3 L-14,2 L0,2 Z " fill="#352D10" transform="translate(283,401)"/>
<path d="M0,0 L25,0 L25,1 L2,1 L2,4 L-6,4 L-6,1 Z " fill="#F9E79B" transform="translate(158,400)"/>
<path d="M0,0 L3,1 L3,7 L-10,7 L-11,3 L-5,4 L-3,3 L1,4 Z " fill="#84855B" transform="translate(290,394)"/>
<path d="M0,0 L11,0 L11,5 L3,6 L0,2 Z " fill="#6F7DCC" transform="translate(284,375)"/>
<path d="M0,0 L3,3 L4,9 L2,9 L2,11 L-3,11 L-3,6 Z " fill="#7582C4" transform="translate(293,348)"/>
<path d="M0,0 L14,0 L14,4 L8,4 L7,2 L5,4 L0,4 Z " fill="#FEF5D1" transform="translate(180,335)"/>
<path d="M0,0 L11,0 L11,3 L8,3 L8,5 L0,5 Z " fill="#F3E9C7" transform="translate(317,322)"/>
<path d="M0,0 L15,0 L15,5 L10,5 L5,2 L4,4 Z " fill="#5464BD" transform="translate(219,284)"/>
<path d="M0,0 L10,0 L9,4 L5,7 L2,7 Z " fill="#99A4DC" transform="translate(368,230)"/>
<path d="M0,0 L2,0 L5,4 L7,6 L7,9 L7,11 L1,12 L0,7 Z " fill="#F7DD65" transform="translate(386,213)"/>
<path d="M0,0 L11,0 L11,5 L2,5 L2,2 L0,2 Z " fill="#F7E597" transform="translate(282,188)"/>
<path d="M0,0 L5,2 L8,3 L8,5 L6,5 L6,9 L9,9 L8,15 L5,14 L2,2 L0,2 Z " fill="#C3A33A" transform="translate(196,160)"/>
<path d="M0,0 L12,0 L12,4 L0,4 Z " fill="#F3E2A6" transform="translate(246,302)"/>
<path d="M0,0 L5,0 L8,5 L8,8 L3,9 L0,3 Z " fill="#D9C06D" transform="translate(270,284)"/>
<path d="M0,0 L3,1 L3,4 L1,4 L0,17 L-1,26 L-2,26 L-2,2 Z " fill="#F0DC9A" transform="translate(207,255)"/>
<path d="M0,0 L9,1 L9,5 L14,6 L14,8 L8,8 L3,4 L0,2 Z " fill="#55584E" transform="translate(228,237)"/>
<path d="M0,0 L2,1 L3,6 L2,8 L5,10 L5,13 L3,13 L2,15 L-1,10 L-1,3 Z " fill="#E6D49E" transform="translate(191,205)"/>
<path d="M0,0 L5,2 L5,4 L3,4 L4,7 L2,7 L1,5 L-3,4 L-3,2 L-5,2 L-5,4 L-7,4 L-7,6 L-4,6 L-4,8 L-8,8 L-8,1 L-2,1 L0,2 Z " fill="#B4BBE5" transform="translate(138,189)"/>
<path d="M0,0 L2,0 L1,3 L-8,9 L-9,9 L-9,2 Z " fill="#F8F9FC" transform="translate(139,169)"/>
<path d="M0,0 L3,1 L3,3 L5,3 L5,10 L3,15 L1,15 L0,5 L-1,1 Z " fill="#11257D" transform="translate(175,169)"/>
<path d="M0,0 L3,0 L4,4 L3,5 L-4,5 L-10,3 L-10,1 Z " fill="#374BAC" transform="translate(378,163)"/>
<path d="M0,0 L15,0 L15,3 L-1,3 Z " fill="#5D511F" transform="translate(179,401)"/>
<path d="M0,0 L1,2 L-1,3 L-5,13 L-7,15 L-10,16 L-8,11 L-4,2 Z " fill="#232916" transform="translate(292,334)"/>
<path d="M0,0 L13,0 L13,3 L2,3 L2,8 L0,8 Z " fill="#08178C" transform="translate(245,306)"/>
<path d="M0,0 L10,0 L8,1 L8,3 L12,3 L13,8 L10,11 L7,4 L1,4 Z " fill="#4D4A2D" transform="translate(268,281)"/>
<path d="M0,0 L3,1 L2,3 L-20,3 L-20,1 Z " fill="#091C1B" transform="translate(206,244)"/>
<path d="M0,0 L7,0 L9,2 L7,2 L7,4 L4,4 L3,3 L-5,2 L-5,4 L-3,4 L-4,8 L-6,8 L-7,2 Z " fill="#6675C8" transform="translate(173,211)"/>
<path d="M0,0 L3,0 L3,16 L0,15 L-1,3 Z " fill="#9F8C39" transform="translate(294,163)"/>
<path d="M0,0 L1,0 L1,7 L-5,7 L-5,10 L-19,9 L-19,7 L0,6 Z " fill="#6776C8" transform="translate(149,157)"/>
<path d="M0,0 L9,0 L15,1 L15,3 L9,4 L1,4 Z " fill="#FAEFC1" transform="translate(197,368)"/>
<path d="M0,0 L7,0 L7,6 L6,4 L3,4 L3,6 L-3,6 L-1,1 Z " fill="#DCDFF2" transform="translate(306,326)"/>
<path d="M0,0 L4,1 L9,7 L5,8 L3,7 L2,2 L-4,2 L-4,7 L-6,6 L-6,1 Z " fill="#14234C" transform="translate(209,309)"/>
<path d="M0,0 L8,0 L10,5 L0,5 Z " fill="#B7BDE0" transform="translate(269,309)"/>
<path d="M0,0 L4,1 L5,5 L1,6 L-4,7 L-4,4 L-7,5 L-5,1 Z " fill="#12235B" transform="translate(287,382)"/>
<path d="M0,0 L9,0 L9,5 L0,5 Z " fill="#6574C9" transform="translate(221,343)"/>
<path d="M0,0 L11,0 L11,1 L1,1 L1,13 L0,20 L-2,20 L-2,9 L0,9 Z " fill="#C3A33A" transform="translate(296,247)"/>
<path d="M0,0 L4,5 L12,16 L10,20 L1,5 Z " fill="#AAB2E0" transform="translate(172,223)"/>
<path d="M0,0 L3,0 L4,4 L4,15 L0,11 Z " fill="#EDDCA6" transform="translate(127,116)"/>
<path d="M0,0 L1,0 L1,19 L-1,18 L-4,10 L-3,7 L0,7 Z " fill="#8F98C9" transform="translate(313,345)"/>
<path d="M0,0 L5,5 L6,8 L2,9 L6,13 L5,16 L-2,7 L-2,5 L2,4 Z " fill="#A7913B" transform="translate(245,344)"/>
<path d="M0,0 L4,0 L4,15 L2,15 L3,8 L0,8 Z " fill="#F3E4AF" transform="translate(262,335)"/>
<path d="M0,0 L3,0 L3,8 L-22,8 L-22,7 L-1,7 L-1,4 L2,4 Z " fill="#122899" transform="translate(227,335)"/>
<path d="M0,0 L7,0 L8,6 L1,6 L1,3 L-1,2 Z " fill="#E5D26E" transform="translate(220,292)"/>
<path d="M0,0 L11,0 L11,2 L8,2 L9,5 L4,6 L1,4 Z " fill="#EEDDAB" transform="translate(186,248)"/>
<path d="M0,0 L4,1 L2,6 L0,6 L-1,11 L-3,10 L-3,5 L-9,5 L-9,4 L-1,3 Z " fill="#F8E7A8" transform="translate(390,243)"/>
<path d="M0,0 L2,1 L2,6 L14,6 L12,9 L4,9 L3,11 L0,3 Z " fill="#E1C97D" transform="translate(233,204)"/>
<path d="M0,0 L6,0 L8,3 L1,11 L0,7 L3,6 L3,3 L0,3 Z " fill="#C5CBEB" transform="translate(312,207)"/>
<path d="M0,0 L9,0 L8,2 L-1,3 L-1,5 L-8,5 L-9,2 L-3,3 L-3,1 Z " fill="#4B5DBE" transform="translate(362,190)"/>
<path d="M0,0 L11,1 L11,5 L0,5 L2,4 Z " fill="#F7EBC1" transform="translate(248,188)"/>
<path d="M0,0 L2,0 L2,5 L17,4 L16,7 L0,7 Z " fill="#374030" transform="translate(150,188)"/>
<path d="M0,0 L1,2 L3,2 L2,6 L-1,7 L-2,10 L-5,11 L-7,7 L-2,5 L-5,4 L-5,2 Z " fill="#C8CDEB" transform="translate(194,174)"/>
<path d="M0,0 L7,0 L6,3 L1,4 L0,7 L-6,7 L-6,4 L-3,4 L-3,2 L0,2 Z " fill="#949FDA" transform="translate(232,161)"/>
<path d="M0,0 L3,1 L3,4 L-11,8 L-14,7 Z " fill="#F3F4FA" transform="translate(280,153)"/>
<path d="M0,0 L6,1 L6,4 L8,4 L8,6 L-8,6 L-8,5 L0,5 L-1,1 Z " fill="#8C97D2" transform="translate(258,395)"/>
<path d="M0,0 L17,0 L16,2 L5,1 L4,7 L0,7 Z " fill="#4E5DBA" transform="translate(241,325)"/>
<path d="M0,0 L19,0 L19,5 L13,5 L13,1 L0,1 Z " fill="#AD9C48" transform="translate(245,316)"/>
<path d="M0,0 L1,2 L4,2 L4,4 L6,4 L6,6 L8,6 L6,10 L4,12 L1,7 L0,6 Z " fill="#836D22" transform="translate(287,310)"/>
<path d="M0,0 L1,2 L-1,5 L-3,5 L-3,7 L-10,9 L-14,8 L-13,6 L-5,3 Z " fill="#253552" transform="translate(292,236)"/>
<path d="M0,0 L1,3 L-5,9 L-7,15 L-15,13 L-11,10 L-5,6 Z " fill="#D9BF4F" transform="translate(381,231)"/>
<path d="M0,0 L2,0 L2,2 L9,0 L9,2 L13,2 L13,4 L8,6 L4,5 L0,2 Z " fill="#D3D8EF" transform="translate(277,216)"/>
<path d="M0,0 L2,3 L6,5 L5,10 L2,13 L1,8 L-3,4 L-1,4 Z " fill="#BCC3E8" transform="translate(374,211)"/>
<path d="M0,0 L7,4 L7,7 L4,11 L2,11 Z " fill="#D8DCF1" transform="translate(210,200)"/>
<path d="M0,0 L9,1 L9,2 L3,3 L2,7 L4,10 L4,13 L0,14 Z " fill="#6373C9" transform="translate(153,195)"/>
<path d="M0,0 L2,0 L3,2 L11,3 L8,6 L4,6 L3,8 L-2,4 Z " fill="#939EDA" transform="translate(351,192)"/>
<path d="M0,0 L2,0 L2,4 L-8,6 L-13,5 L-13,4 Z " fill="#6676CA" transform="translate(174,158)"/>
<path d="M0,0 L4,2 L4,10 L2,10 L1,12 L-1,5 L0,3 L-2,2 L0,2 Z " fill="#FDFDFE" transform="translate(309,342)"/>
<path d="M0,0 L4,0 L7,10 L8,14 L5,11 L5,9 L3,9 Z " fill="#192024" transform="translate(300,342)"/>
<path d="M0,0 L3,0 L3,7 L-5,6 L-6,3 Z " fill="#FBEEB6" transform="translate(304,237)"/>
<path d="M0,0 L1,4 L0,10 L6,10 L6,13 L-1,13 L-1,19 L-2,19 L-2,9 Z " fill="#BDA65B" transform="translate(234,184)"/>
<path d="M0,0 L1,2 L-4,13 L-5,19 L-8,20 L-7,13 L-5,7 L-3,7 L-1,1 Z " fill="#8B7424" transform="translate(214,168)"/>
<path d="M0,0 L3,1 L0,10 L-1,7 L-8,4 L-4,1 Z " fill="#BCC3E6" transform="translate(241,152)"/>
<path d="M0,0 L6,0 L2,8 L-1,5 L-4,4 L-4,1 Z " fill="#F6EDCF" transform="translate(213,149)"/>
<path d="M0,0 L9,0 L12,3 L10,4 L12,8 L1,3 Z " fill="#AD9539" transform="translate(278,147)"/>
<path d="M0,0 Z M-1,1 Z M-3,2 L0,3 L-4,6 L-16,12 L-14,8 Z " fill="#A87412" transform="translate(360,430)"/>
<path d="M0,0 L1,0 L2,7 L2,18 L1,18 L1,9 L-4,9 L-3,4 L-1,4 Z " fill="#0E2395" transform="translate(265,383)"/>
<path d="M0,0 L1,0 L2,7 L5,6 L5,19 L3,20 L2,12 L0,11 L-1,3 Z " fill="#3245B4" transform="translate(298,317)"/>
<path d="M0,0 L5,0 L6,1 L5,9 L2,9 L1,6 L2,4 L0,4 Z " fill="#FBF0C2" transform="translate(196,312)"/>
<path d="M0,0 L5,0 L4,9 L0,9 Z " fill="#DEC76A" transform="translate(238,292)"/>
<path d="M0,0 L8,1 L14,5 L13,8 L5,4 L0,2 Z " fill="#2C3C4F" transform="translate(176,150)"/>
<path d="M0,0 L4,0 L4,2 L8,3 L4,6 L-4,4 L-4,2 Z " fill="#B4BCE2" transform="translate(272,150)"/>
<path d="M0,0 L2,4 L2,7 L-9,8 L-9,4 L-2,4 Z " fill="#050C1C" transform="translate(240,368)"/>
<path d="M0,0 L5,0 L9,6 L0,6 Z " fill="#D6D9EF" transform="translate(242,359)"/>
<path d="M0,0 L2,0 L3,10 L3,24 L2,24 L2,13 L0,13 Z " fill="#AE8F2A" transform="translate(314,258)"/>
<path d="M0,0 L2,3 L1,8 L-5,8 L-4,5 L-7,5 L-7,3 Z " fill="#4658BF" transform="translate(362,195)"/>
<path d="M0,0 L4,2 L8,5 L8,7 L3,8 L0,7 Z " fill="#B7BEE5" transform="translate(334,191)"/>
<path d="M0,0 L1,0 L1,5 L6,6 L6,8 L-5,9 L-3,3 L0,2 Z " fill="#8F8A46" transform="translate(381,182)"/>
<path d="M0,0 L5,0 L10,3 L10,6 L14,7 L13,9 L7,8 L6,6 L7,4 L5,4 L5,2 L0,1 Z " fill="#4D5EA5" transform="translate(271,165)"/>
<path d="M0,0 L5,0 L5,3 L14,3 L11,5 L0,5 Z " fill="#F2E4B6" transform="translate(93,146)"/>
<path d="M0,0 L4,2 L8,2 L10,4 L6,7 L2,5 L-1,2 Z M2,7 L4,8 Z " fill="#F5E4AA" transform="translate(259,130)"/>
<path d="M0,0 L3,3 L6,10 L6,17 L4,14 L0,6 Z " fill="#222C1B" transform="translate(279,288)"/>
<path d="M0,0 L1,0 L1,9 L0,11 L-10,11 L-10,8 L0,8 Z " fill="#6E5E21" transform="translate(307,236)"/>
<path d="M0,0 L7,1 L7,2 L18,3 L19,4 L19,9 L18,5 L0,4 Z " fill="#394CB6" transform="translate(311,226)"/>
<path d="M0,0 L2,2 L1,3 L5,4 L5,2 L7,2 L7,4 L13,3 L13,5 L-5,5 L-5,2 Z " fill="#8590D2" transform="translate(317,222)"/>
<path d="M0,0 L19,0 L19,1 L7,2 L1,1 L1,4 L4,4 L4,7 L0,8 Z " fill="#7683CC" transform="translate(311,206)"/>
<path d="M0,0 L3,0 L3,4 L1,5 L-18,6 L-21,7 L-21,4 L0,4 Z " fill="#283CAB" transform="translate(355,159)"/>
<path d="M0,0 L4,2 L5,6 L-1,6 L-1,4 L-5,4 L-5,2 Z " fill="#D2D7EF" transform="translate(188,158)"/>
<path d="M0,0 L2,1 L1,5 L-5,6 L-9,2 L-6,1 L-1,1 Z " fill="#293E8C" transform="translate(311,394)"/>
<path d="M0,0 L4,0 L4,11 L1,11 Z " fill="#9AA4DA" transform="translate(234,375)"/>
<path d="M0,0 L17,0 L21,1 L19,7 L16,7 L16,1 L0,1 Z " fill="#3649AF" transform="translate(242,375)"/>
<path d="M0,0 L10,0 L10,3 L3,5 L1,4 Z " fill="#E2C252" transform="translate(317,372)"/>
<path d="M0,0 L13,0 L13,1 L7,2 L6,5 L0,5 Z " fill="#EDE0B2" transform="translate(317,367)"/>
<path d="M0,0 L1,0 L0,7 L-2,12 L-6,13 L-5,9 L-2,2 Z " fill="#060B1C" transform="translate(277,362)"/>
<path d="M0,0 L8,0 L6,7 L1,5 Z " fill="#D7DBF1" transform="translate(274,336)"/>
<path d="M0,0 L10,0 L10,2 L17,2 L17,3 L-1,3 Z " fill="#111215" transform="translate(195,332)"/>
<path d="M0,0 L10,1 L11,4 L1,4 L0,8 Z " fill="#121F6D" transform="translate(269,321)"/>
<path d="M0,0 L4,0 L1,10 L-3,7 L-1,1 Z " fill="#DEC98A" transform="translate(304,284)"/>
<path d="M0,0 L3,0 L3,13 L0,13 Z " fill="#1D31A7" transform="translate(259,232)"/>
<path d="M0,0 L14,0 L11,3 L0,3 Z " fill="#121F4C" transform="translate(334,188)"/>
<path d="M0,0 L3,1 L3,3 L-2,5 L-4,11 L-6,10 L-5,5 L-7,5 L-6,1 L0,2 Z " fill="#5E6EC8" transform="translate(185,167)"/>
<path d="M0,0 L3,0 L3,12 L-1,11 Z " fill="#7581C9" transform="translate(227,352)"/>
<path d="M0,0 L9,2 L9,5 L2,5 L0,4 L-1,7 Z " fill="#F5ECCE" transform="translate(318,335)"/>
<path d="M0,0 L7,1 L7,6 L1,6 Z " fill="#2A3DA4" transform="translate(227,308)"/>
<path d="M0,0 L6,0 L9,2 L9,7 L8,5 L2,5 Z " fill="#9CA4CB" transform="translate(212,293)"/>
<path d="M0,0 L3,0 L3,10 L1,16 L0,16 Z " fill="#FBF5E2" transform="translate(231,257)"/>
<path d="M0,0 L2,1 L2,10 L-3,11 L-1,1 Z " fill="#B8A542" transform="translate(385,219)"/>
<path d="M0,0 L2,2 L3,8 L-6,8 L-5,5 L-3,5 Z " fill="#F1F2F9" transform="translate(269,202)"/>
<path d="M0,0 L7,0 L7,3 L12,3 L12,4 L-1,4 L-2,1 Z " fill="#364AB7" transform="translate(364,184)"/>
<path d="M0,0 L2,0 L6,13 L3,14 L0,5 Z " fill="#5B6CC7" transform="translate(221,172)"/>
<path d="M0,0 L3,0 L2,5 L-4,16 L-5,13 Z " fill="#B9A770" transform="translate(20,158)"/>
<path d="M0,0 L4,2 L8,0 L8,4 L0,3 L0,5 L2,6 L-1,8 L-3,7 L-1,1 Z " fill="#6D7CCD" transform="translate(254,155)"/>
<path d="M0,0 L8,1 L7,4 L-6,4 L-6,2 L0,2 Z " fill="#D9BB4C" transform="translate(274,143)"/>
<path d="M0,0 L3,0 L3,3 L0,3 Z " fill="#FFF8C1" transform="translate(341,130)"/>
</svg>
